<svg viewBox="0 0 300 300" xmlns="http://www.w3.org/2000/svg"><path d="m91.5 107.5s4 64 4 77 1 38 1 38 4 11 22 10c36.5.5 60-11 66-16 0 0-3-106-3-116s4-20-36-22c0 0-35.59 1.45-44.8 8.73 0 0-10.2 2.27-9.2 7.27s0 13 0 13z" fill="#26a9e0"/><path d="m95.8 102s2.7 53.53 3.7 68.53 5 42 5 45v14.71s-7-3.71-8-7.71-3.65-88.21-3.83-95.61-1.17-19.42-1.17-19.42v-13s-.4 5.93 4.3 7.5z" fill="#fff" fill-opacity=".4"/><path d="m145.5 78.5s-53 5-54 16 23 14 37 13 52-7 53-16-25-14-36-13z" fill="#fff" fill-opacity=".2" stroke="#000" stroke-miterlimit="10"/><path d="m91.5 107.5s4 64 4 77 1 38 1 38 3 9 22 10c32 2 60-11 66-16 0 0-3-106-3-116s4-20-36-22c-16 .67-31.14 3.13-44.8 8.73-4.7 1.42-7.78 3.83-9.2 7.27z" fill="none" stroke="#000" stroke-miterlimit="10"/><path d="m168.5 103.5s1 49 1 57 1 35 1 41-1 22.92-1 22.92l15-7.92s-2.94-96.67-3-100.83 0-25.17 0-25.17c.34 3.51-3.36 6.57-11 9.17l-2 .72z" fill-opacity=".2"/><circle cx="148" cy="114" r="1.5"/><circle cx="130.5" cy="116.5" r="1.5"/><circle cx="114.5" cy="117.5" r="1.5"/><circle cx="116.5" cy="225.5" r="1.5"/><circle cx="101.5" cy="220.5" r="1.5"/><circle cx="132.5" cy="225.5" r="1.5"/><circle cx="150.5" cy="221.5" r="1.5"/><circle cx="166.5" cy="217.5" r="1.5"/><circle cx="179.5" cy="212.5" r="1.5"/><circle cx="99.5" cy="112.5" r="1.5"/><circle cx="164.5" cy="109.5" r="1.5"/><circle cx="177.5" cy="104.5" r="1.5"/></svg>