<svg viewBox="0 0 300 300" xmlns="http://www.w3.org/2000/svg"><path d="m148 87s-56.5.5-56.5 63.93 33 84.57 48 84.57 45-8.05 51-41.28c0 0 1-16.11 0-25.17s-1-29.2-1-32.22-3-48.32-41.5-49.83z" fill="#26a9e0"/><path d="m151.5 92.5s17 12 22 42 7 44 3 63-9.5 28.5-14.75 31.75 21.67-4.94 26.71-26.84 1.77-35.94 1.77-35.94l-1-32.24s-5-35.64-26.88-43.18c0 0-11.87-4.54-17.37-3s3.52 1.45 6.52 4.45z" fill-opacity=".2"/><path d="m113.5 110.5s-4 0-4 4 4 7 7 5 5-5 4-7-2-4-7-2z" fill="#fff" fill-opacity=".4"/><path d="m108.5 123.5s-4-1-7 5-4 15-3 24a33.42 33.42 0 0 0 8 18c2 2 6 3 5-4s-5-14-4-25 7-17 1-18z" fill="#fff" fill-opacity=".4"/><g fill="none" stroke="#000" stroke-miterlimit="10"><path d="m148 87s-56.5.5-56.5 63.5 33 84 48 84 45-8 51-41c0 0 1-16 0-25s-1-29-1-32-3-48-41.5-49.5z"/><path d="m148 86s-56.5.5-56.5 63.5 33 84 48 84 45-8 51-41c0 0 1-16 0-25s-1-29-1-32-3-48-41.5-49.5z"/></g></svg>