<svg viewBox="0 0 300 300" xmlns="http://www.w3.org/2000/svg"><path d="m143 89s-39 6-64 66 15.5 70.5 34.5 74.5 85 13 102-27-40-117-72.5-113.5z" fill="#26a9e0"/><path d="m143 88s-39 6-64 66 15.5 70.5 34.5 74.5 85 13 102-27-40-117-72.5-113.5z" fill="none" stroke="#000" stroke-miterlimit="10"/><path d="m99 121.07s23-25.07 40.5-22.57a137.38 137.38 0 0 1 21.88 7.59s4.12-7.59 6.12-8.59-17-9-23-9c-11.5.5-35 16.14-45.5 32.57z" fill="#fff" fill-opacity=".2"/><path d="m143 89s-39 6-64 66 15.5 70.5 34.5 74.5 85 13 102-27-40-117-72.5-113.5z" fill="none" stroke="#000" stroke-miterlimit="10"/><path d="m161.38 106.09a20.31 20.31 0 0 0 -1.88 4.41c-1 6 2 11 9 19s20 27 21 45 1 35-13 45-24.21 14.08-24.21 14.08 34.71.42 47.8-19.51c11.41-15.58 10.59-36 0-59.77-11.09-27.31-33.81-44.6-33.81-44.6z" fill-opacity=".2"/><path d="m167.41 97.44c-2.41-.44-5.91 9.06-5.91 9.06s27 14 39 48 8.86 41 5.43 50-17.62 24.63-36 27.81 37.6-2.82 45.6-29.82c11.5-39.5-22.87-80.23-22.87-80.23s-17.66-21.26-25.25-24.82z" fill-opacity=".1"/><path d="m91.5 140.5s-14 24-12 43 12 26 19 31 9.2 13.33 9.2 13.33-35.7-3.83-36.62-40.99c0 0 3.19-39.76 30.31-68.55l11.83-10.29s-17.72 24.5-21.72 32.5z" fill="#fff" fill-opacity=".4"/><circle cx="138.5" cy="106.5" r="2"/><circle cx="111" cy="115" r="2"/><circle cx="164" cy="117" r="2"/><circle cx="185" cy="136" r="2"/><circle cx="194" cy="158" r="2"/><circle cx="201" cy="181" r="2"/><circle cx="200" cy="205" r="2"/><circle cx="183" cy="218" r="2"/><circle cx="164" cy="223" r="2"/><circle cx="142" cy="223" r="2"/><circle cx="118" cy="221" r="2"/><circle cx="97" cy="218" r="2"/><path d="m139.5 98.5s35 3 57 48 13.83 72-24.08 85c-54.92 7-79.92-7-91-16.46-1.5.92-21-20.3-3-60.55 17.32-38.49 44.08-56.99 61.08-55.99z" fill="none" stroke="#000" stroke-miterlimit="10"/></svg>