<svg viewBox="0 0 300 300" xmlns="http://www.w3.org/2000/svg"><path d="m177 71s-73-2-82 51c0 0-4.5 17.5 1.5 40.5s14 50 14 50 6 10 46 6 75-25 75-25-10-100-16-108-12.5-13.5-38.5-14.5z" fill="#26a9e0"/><path d="m135.5 78.5s1 4-5 9-20 12-25 31 0 29 2 37 7 25 6 35-4.75 16-4.75 16-21.38-60.92-12.82-89 33.07-36.5 39.57-39z" fill="#fff" fill-opacity=".4"/><g stroke="#000" stroke-miterlimit="10"><path d="m177 71s-73-2-82 51c0 0-4.5 17.5 1.5 40.5s14 50 14 50 6 10 46 6 75-25 75-25-10-100-16-108-15-15-38.5-14.5z" fill="none"/><path d="m177 70s-73-2-82 51c0 0-4.5 17.5 1.5 40.5s14 50 14 50 6 10 46 6 75-25 75-25-10-100-16-108-15-15-38.5-14.5z" fill="none"/><path d="m205.5 86.5s-27 2-29 28 9 73 9 73l5.38 23.67 40.62-17.67s-8-94-15-106c-.02.01-8-1-11-1z" fill-opacity=".2" stroke-width=".75"/></g><circle cx="147.5" cy="214.5" r="1.5"/><circle cx="165.5" cy="211.5" r="1.5"/><circle cx="183.5" cy="206.5" r="1.5"/><circle cx="196.5" cy="202.5" r="1.5"/><circle cx="208.5" cy="198.5" r="1.5"/><circle cx="219.5" cy="194.5" r="1.5"/><circle cx="228.5" cy="190.5" r="1.5"/><circle cx="130.5" cy="214.5" r="1.5"/><circle cx="115.5" cy="210.5" r="1.5"/></svg>