<svg viewBox="0 0 300 300" xmlns="http://www.w3.org/2000/svg"><path d="m147 88c-20.15-.5-56.5 14.5-56.5 57.5 0 0 1 22 6 41s10 34 10 37c0 0 3 12 25 11s62-15 62-15-2-31-3-49 6.29-81.26-43.5-82.5z" fill="#26a9e0"/><path d="m147 88c-20.15-.5-56.5 14.5-56.5 57.5 0 0 1 22 6 41s10 34 10 37c0 0 3 12 25 11s62-15 62-15-2-31-3-49 6.29-81.26-43.5-82.5z" fill="none" stroke="#000" stroke-linecap="round" stroke-linejoin="round"/><path d="m147 87c-20.15-.5-56.5 14.5-56.5 57.5 0 0 1 22 6 41s10 34 10 37c0 0 3 12 25 11s62-15 62-15-2-31-3-49 6.29-81.26-43.5-82.5z" fill="none" stroke="#000" stroke-linecap="round" stroke-linejoin="round"/><path d="m135.5 96.5s36-4 45 43c0 0 3 24 3 35s-1 25 1 36l2 11 7-2s-2.53-55.76-3.27-70.88-1.73-57.81-40.23-60.46c0 0-19.78-1-33.64 8.7 0 0-4.86 4.65.14 2.65s16-3.01 19-3.01z" fill-opacity=".2"/><path d="m122.5 104.5s-4 1-4 4 2 7 5 6 5-5 4-7-2-4-5-3z" fill="#fff" fill-opacity=".4"/><path d="m115.5 111.5s-9-6-17 12-1 37-1 37 2 6 8 6 4-9 4-9-4-13-1-24 7-13 7-13 5-5 0-9z" fill="#fff" fill-opacity=".4"/><circle cx="111" cy="223" r="1.5"/><circle cx="125.5" cy="227.5" r="1.5"/><circle cx="141.5" cy="226.5" r="1.5"/><circle cx="159.5" cy="223.5" r="1.5"/><circle cx="175.5" cy="219.5" r="1.5"/><circle cx="188.5" cy="214.5" r="1.5"/></svg>