<svg viewBox="0 0 300 300" xmlns="http://www.w3.org/2000/svg"><path d="m147.5 88.5s-64 9-63 72c0 0-6 51 54 50 0 0 66-6 65-53s-31.5-70.5-56-69z" fill="#26a9e0"/><path d="m154.5 90.5s18 12 25 47 2 48-7 55-24.12 17.37-42.56 17.68c0 0 56.6 1.84 70.58-33.42.73-1.85 1.84-5.7 1.84-5.7s-16.86-12.56-19.19-34.06c-1.67-14.45 2.33-24.45 6.49-24.63a7 7 0 0 0 -.63-1.08c-9.35-13.29-29.03-24.29-34.53-20.79z" fill-opacity=".2"/><g stroke="#000" stroke-miterlimit="10"><path d="m147.5 87.5s-64 9-63 72c0 0-6 51 54 50 0 0 66-6 65-53s-33-71-56-69z" fill="none"/><path d="m147.5 88.5s-64 9-63 72c0 0-6 51 54 50 0 0 66-6 65-53s-32-71-56-69z" fill="none"/><path d="m92.22 125.67s2.28 14.83.28 24.83-7.67 21-7.67 21-3.89-23.65 7.39-45.83z" fill="#fff" fill-opacity=".2" stroke-width=".75"/><path d="m187.5 113.5s-7 10-4 26 12 27.67 18.5 29.83c0 0 5.83-35.17-12.83-57z" fill="#fff" fill-opacity=".2" stroke-width=".75"/></g><path d="m112.5 112.5s-5-1-10 6-6 11-5 13 7 1 11-7 6-10 4-12z" fill="#fff" fill-opacity=".4"/><path d="m117.5 102.5s-5 4-2 7a6.31 6.31 0 0 0 9 0c2-2 2-6-1-7a10.56 10.56 0 0 0 -6 0z" fill="#fff" fill-opacity=".4"/><circle cx="188" cy="143" r="1.5"/><circle cx="193.5" cy="154.5" r="1.5"/><circle cx="199.5" cy="161.5" r="1.5"/><circle cx="88.5" cy="154.5" r="1.5"/><circle cx="89.5" cy="143.5" r="1.5"/><circle cx="90.5" cy="133.5" r="1.5"/><circle cx="186.5" cy="130.5" r="1.5"/><circle cx="190.5" cy="119.5" r="1.5"/></svg>