<svg viewBox="0 0 300 300" xmlns="http://www.w3.org/2000/svg"><path d="m212.5 90.5s-19.5-20.5-55-12c-31 8-61 14-64 60a122.71 122.71 0 0 0 4 35c5 19 11 42 12 45 0 0 8 9 25 9s56-10 56-10 11-5 12-6-20-60-11-86c0 0 3-7 14-8s14 0 14 0-2-21-7-27z" fill="#26a9e0"/><path d="m130.5 88.5s-9 6-12 9-16 15-18 28 2 38 4 46 5 21 4 26-2.93 6.66-2.93 6.66-6.07-20.66-8.07-30.66-6-27-1.52-51 34.52-37 34.52-34z" fill="#fff" fill-opacity=".4"/><g stroke="#000" stroke-linecap="round" stroke-linejoin="round"><path d="m212.5 90.5s-18.25-20.21-55-12c-31.25 7-61 14-64 60a122.71 122.71 0 0 0 4 35c5 19 11 42 12 45 0 0 8 9 25 9s56-10 56-10 11-5 12-6-20-60-11-86c0 0 3-7 14-8s14 0 14 0-2-21-7-27z" fill="none"/><path d="m212.5 89.5s-18-19-55-12c-31.23 7.06-61 14-64 60a122.71 122.71 0 0 0 4 35c5 19 11 42 12 45 0 0 8 9 25 9s56-10 56-10 11-5 12-6-20-60-11-86c0 0 3-7 14-8s14 0 14 0-2-21-7-27z" fill="none"/><path d="m209.5 92.5s-15 0-21 6-16 16-13 41 12 65 12 65l3 13 12-6s-22.77-76.47-7.39-90.23c0 0 2.39-4.77 24.39-3.77 0 0-.4-21-5.7-25z" fill-opacity=".2"/></g><circle cx="211" cy="103" r="1.5"/><circle cx="195.5" cy="207.5" r="1.5"/><circle cx="182.5" cy="213.5" r="1.5"/><circle cx="165.5" cy="217.5" r="1.5"/><circle cx="146.5" cy="220.5" r="1.5"/><circle cx="129.5" cy="220.5" r="1.5"/><circle cx="114.5" cy="216.5" r="1.5"/></svg>