<svg viewBox="0 0 300 300" xmlns="http://www.w3.org/2000/svg"><path d="m71.5 130.5a51.83 51.83 0 0 0 6 29c8 15 39 71 66 70s76-50 76-93-38-54-77-53-69 19-71 47z" fill="#26a9e0"/><path d="m116.5 88s-24.18 5.5-35.59 20.5-9.79 26-9.1 34.48 8.2 22.55 14.44 33 18.64 28.81 22.95 32.65 11.3 11.84 11.3 11.84.3-6.17-5.85-18.58-31.15-37.89-33.15-58.15 6-42.25 35-55.74z" fill="#fff" fill-opacity=".4"/><path d="m71.5 130.5a51.83 51.83 0 0 0 6 29c8 15 39 71 66 70s76-50 76-93-38-54-77-53-69 19-71 47z" fill="none" stroke="#000" stroke-miterlimit="10" stroke-width="2"/><path d="m75.44 115.88s33.06-15.38 65.06-14.38 65 7 67 30-3 34-9 50a89.16 89.16 0 0 1 -16.32 27" fill="none" stroke="#000" stroke-miterlimit="10"/><path d="m80 118.5s-1.5 0-1.5 2 1.5 2 1.5 2 1.5 0 1.5-2-1.5-2-1.5-2z"/><path d="m73 133.5s-1.5 0-1.5 2 1.5 2 1.5 2 1.5 0 1.5-2-1.5-2-1.5-2z"/><path d="m98 112.5s-1.5 0-1.5 2 1.5 2 1.5 2 1.5 0 1.5-2-1.5-2-1.5-2z"/><path d="m118 109.5s-1.5 0-1.5 2 1.5 2 1.5 2 1.5 0 1.5-2-1.5-2-1.5-2z"/><path d="m143 107.5s-1.5 0-1.5 2 1.5 2 1.5 2 1.5 0 1.5-2-1.5-2-1.5-2z"/><path d="m164 107.5s-1.5 0-1.5 2 1.5 2 1.5 2 1.5 0 1.5-2-1.5-2-1.5-2z"/><path d="m184 112.5s-1.5 0-1.5 2 1.5 2 1.5 2 1.5 0 1.5-2-1.5-2-1.5-2z"/><path d="m201 125.5s-1.5 0-1.5 2 1.5 2 1.5 2 1.5 0 1.5-2-1.5-2-1.5-2z"/><path d="m202 149.5s-1.5 0-1.5 2 1.5 2 1.5 2 1.5 0 1.5-2-1.5-2-1.5-2z"/><path d="m195 173.5s-1.5 0-1.5 2 1.5 2 1.5 2 1.5 0 1.5-2-1.5-2-1.5-2z"/><path d="m185 195.5s-1.5 0-1.5 2 1.5 2 1.5 2 1.5 0 1.5-2-1.5-2-1.5-2z"/><path d="m169 210.5s-1.5 0-1.5 2 1.5 2 1.5 2 1.5 0 1.5-2-1.5-2-1.5-2z"/><path d="m141 220.5s-1.5 0-1.5 2 1.5 2 1.5 2 1.5 0 1.5-2-1.5-2-1.5-2z"/><path d="m115 209.5s-1.5 0-1.5 2 1.5 2 1.5 2 1.5 0 1.5-2-1.5-2-1.5-2z"/><g fill-opacity=".2"><path d="m199.5 115.5-9-5.07s-2.5-.43.5 9.57 6.5 25.5 4.5 40.5-7 27-19 40-17.37 20.78-17.19 23.89 25.19-15.89 29.19-21.89 11.93-23.83 16-39 7-39-5-48z"/><path d="m201 100-10 10s-23.39-8.18-41.7-8.09-33.49-1.25-53.4 6.42l-19.9 7.67s-.08-2.83 6.71-9.66 18-18.34 48.89-22.09 49.94 2.2 58.92 6.73 12 7.09 12 7.09z" fill="#fff"/></g></svg>