<svg viewBox="0 0 300 300" xmlns="http://www.w3.org/2000/svg"><path d="m144.5 87.5s-51 3-53 55c0 0 0 27 5 42s10 38 10 38l16 16 1 5s13.5-1.5 19-1 14 2 14 2 6-13 19-19 18-8 18-8-4-35-4-52 12-77-45-78z" fill="#26a9e0"/><path d="m115.14 97.69s6.36 5.81-2.64 14.81-16 23-13 44 10 40 10 50-.67 18.19-.67 18.19l-2.33-2.19s-15-45-15-76.5 23.64-48.31 23.64-48.31z" fill="#fff" fill-opacity=".4"/><path d="m144.5 87.5s-51 3-53 55c0 0 0 27 5 42s10 38 10 38l16 16 1 5s9-1 15-1 19 1 19 1a38.06 38.06 0 0 1 18-18c13-6 18-8 18-8s-4-35-4-52 12-77-45-78z" fill="none" stroke="#000" stroke-linecap="round" stroke-linejoin="round"/><path d="m144.5 86.5s-51 3-53 55c0 0 0 27 5 42s10 38 10 38l16 16 1 5s9-1 15-1 19 1 19 1a38.06 38.06 0 0 1 18-18c13-6 18-8 18-8s-4-35-4-52 12-77-45-78z" fill="none" stroke="#000" stroke-miterlimit="10"/><path d="m158.5 92.5s20 15 18 32-8 28-12 29a19.27 19.27 0 0 1 8 16c0 11 1 50 1 50l.34 6.83 19.66-8.83s-3.77-39-3.38-63.49 1.38-55.13-31.62-64.82c0 0-3 1.31 0 3.31z" fill-opacity=".2"/><g stroke="#000" stroke-linecap="round" stroke-linejoin="round"><path d="m124.5 211.5 37-1 4.76 21.18s-8.76 8.82-8.76 11.82c-2 1-10-1-18-1a147.84 147.84 0 0 0 -16 1s-5-19 1-32z" fill="none"/><path d="m159.5 212.5a19.89 19.89 0 0 0 -4 14c1 8 2 17 2 17l9-12-5-21z" fill-opacity=".2" stroke-width=".75"/></g></svg>