<?xml version="1.0" encoding="utf-8"?>
<svg xmlns="http://www.w3.org/2000/svg" xmlns:xlink="http://www.w3.org/1999/xlink" width="512" height="512" viewBox="0 0 512 512">
    <path id="Ebene_3" fill="#954747" d="M471.062,59.933c-0.27-3.391-2.594-6.202-5.771-6.99L256.312,0.228c-1.181-0.304-2.457-0.302-3.605-0.005 L43.704,52.943c-3.183,0.801-5.504,3.612-5.77,6.998c-0.071,0.911-6.774,92.324,16.793,194.281 c13.6,58.837,34.542,109.289,62.244,149.967c34.709,50.967,80.16,86.63,135.111,106.002c0.781,0.27,1.598,0.406,2.422,0.406 s1.635-0.137,2.448-0.416c54.921-19.362,100.368-55.025,135.079-105.992c27.701-40.675,48.639-91.13,62.238-149.967 C477.842,152.237,471.131,60.851,471.062,59.933z M254.504,494.418C44.516,418.019,50.41,115.222,52.738,66.844l201.758-50.896 L456.25,66.844C458.588,115.219,464.533,417.993,254.504,494.418z M253.7,37.641c0.522-0.134,1.079-0.134,1.598,0l178.764,45.093 c1.502,0.378,2.566,1.76,2.582,3.355c0.9,72.873-9.479,315.996-180.829,385.56c-0.006,0-0.011,0.007-0.016,0.007 c-0.027,0.011-0.049,0.021-0.076,0.031c-0.396,0.164-0.812,0.24-1.232,0.24s-0.84-0.083-1.233-0.24 c-0.028-0.011-0.048-0.021-0.076-0.031c-0.005,0-0.01-0.007-0.015-0.007C81.346,401.959,71.299,158.93,72.316,86.095 c0.022-1.605,1.083-2.978,2.584-3.355L253.7,37.641z"/>
    <g id="Ebene_1">
        <defs>
            <ellipse id="SVGID_1_" cx="253.813" cy="224.421" rx="132.813" ry="132.922"/>
        </defs>
        <clipPath id="SVGID_2_">
            <use overflow="visible" xlink:href="#SVGID_1_"/>
        </clipPath>
        <g clip-path="url(#SVGID_2_)">
            <defs>
                <path id="SVGID_3_" d="M121 92H386V357H121z"/>
            </defs>
            <clipPath id="SVGID_4_">
                <use overflow="visible" xlink:href="#SVGID_3_"/>
            </clipPath>
            <path fill="#FFF" d="M121 92H386V357H121z" clip-path="url(#SVGID_4_)"/>
            <path fill="#A0A0A0" d="M281.484,252.347c19.365-9.777,32.637-29.78,32.637-52.87 c0-32.722-26.652-59.25-59.532-59.25s-59.532,26.527-59.532,59.25c0,22.955,13.117,42.859,32.297,52.698 c-41.861,13.107-72.57,56.168-72.57,107.272c0,61.51,44.484,111.372,99.359,111.372c54.875,0,99.358-49.862,99.358-111.372 C353.502,308.568,323.064,265.658,281.484,252.347z" clip-path="url(#SVGID_4_)"/>
            <g fill="#954747" stroke="#000" clip-path="url(#SVGID_4_)">
                <path d="M120.5 63L120.5 82M93 92.5L112 92.5M93 470.5L112 470.5M120.5 499L120.5 480M385.5 63L385.5 82M415 92.5L396 92.5M415 470.5L396 470.5M385.5 499L385.5 480"/>
            </g>
        </g>
    </g>
</svg>
