<?xml version="1.0" encoding="utf-8"?>
<!-- Generator: Adobe Illustrator 25.0.1, SVG Export Plug-In . SVG Version: 6.00 Build 0)  -->
<svg version="1.1" id="Ebene_1" xmlns="http://www.w3.org/2000/svg" xmlns:xlink="http://www.w3.org/1999/xlink" x="0px" y="0px"
	 viewBox="0 0 256 256" style="enable-background:new 0 0 256 256;" xml:space="preserve">
<style type="text/css">
	.st0{clip-path:url(#SVGID_2_);fill:#B4383D;}
	.st1{clip-path:url(#SVGID_2_);fill:#C36065;}
	.st2{clip-path:url(#SVGID_2_);fill:#F9F9F9;}
	.st3{fill:#FFFFFF;}
</style>
<g>
	<defs>
		<rect id="SVGID_1_" x="0" y="0.1" width="256" height="256"/>
	</defs>
	<clipPath id="SVGID_2_">
		<use xlink:href="#SVGID_1_"  style="overflow:visible;"/>
	</clipPath>
	<path class="st0" d="M240.9,256.1H15.1C6.7,256.1,0,249.3,0,241V15.2C0,6.8,6.7,0.1,15.1,0.1h225.8c8.3,0,15.1,6.8,15.1,15.1V241
		C256,249.3,249.2,256.1,240.9,256.1"/>
	<path class="st1" d="M4.4,4.5c2.7-2.7,6.5-4.4,10.7-4.4h225.8c8.3,0,15.1,6.8,15.1,15.1V241c0,4.2-1.7,7.9-4.4,10.7"/>
	<path class="st2" d="M127.7,228.7L127.7,228.7c-1,0-2.1-0.1-3.1-0.5C47.5,203.8,38.1,92.6,37.1,59.1c-0.3-9.2,6.4-17,15.8-18.7
		l74.7-14.8c1.3-0.2,2.6-0.2,3.9,0l0.2,0l70.5,14.7c9.3,1.8,15.9,9.6,15.6,18.7c-1,33.6-10.3,145.1-87.8,169.4
		C129.3,228.6,128.5,228.7,127.7,228.7 M130,41.6c-0.3-0.1-0.7-0.1-1,0L55.7,56.1c-1.5,0.3-2.7,1.3-2.6,2.5
		c0.5,16.9,3,49.9,13.8,82.1c12.6,37.4,32.4,61.3,58.9,71.1c1,0.4,2.2,0.4,3.2,0c26.5-9.8,46.3-33.8,58.9-71.2
		c10.8-32.2,13.3-65.2,13.8-82.1c0-1.1-1.1-2.2-2.6-2.5l-0.2,0L130,41.6z"/>
</g>
<path class="st3" d="M166.5,136.9c-2.5-11.3-9.6-20.8-19.4-26.3c-0.5-0.3-0.6-1-0.2-1.4c2-2,3.3-4,4.1-6c2.3-4.5,3.4-9.8,2.7-15.4
	c-1.5-12-11.2-21.6-23.2-23c-16-1.8-29.5,10.7-29.5,26.3c0,7,2.7,13.3,7.1,18c0.4,0.4,0.3,1.1-0.2,1.4c-9.8,5.5-17,15-19.5,26.3
	c-1,4.4,2.3,8.5,6.8,8.5c3.3,0,6.1-2.2,6.8-5.4c2.5-11.7,12.9-20.5,25.4-20.5l0,0c12.5,0,22.9,8.8,25.4,20.5
	c0.7,3.2,3.6,5.4,6.8,5.4C164.2,145.5,167.5,141.3,166.5,136.9z M115.1,89.6c0.7-5.6,5.2-10,10.7-10.7c8.2-1,15.2,6,14,14.3
	c-0.8,5.3-5.1,9.6-10.4,10.4C121.1,104.8,114.1,97.8,115.1,89.6z"/>
</svg>
