<svg xmlns="http://www.w3.org/2000/svg" width="512" height="512" viewBox="0 0 512 512"><linearGradient id="a" gradientUnits="userSpaceOnUse" x1="342.147" y1="581" x2="342.147" y2="786" gradientTransform="translate(-83 -329)"><stop offset="0" stop-color="#e1e1e1"/><stop offset=".372" stop-color="#e4e4e4"/><stop offset=".619" stop-color="#ededed"/><stop offset=".694" stop-color="#f1f1f1"/></linearGradient><path fill="url(#a)" d="M470 252H48.213c10.213 49.809 87.234 120.872 217.441 115.375 0 0-40.61 74.45-44.676 89.625H227s104.145-59.666 193-135c17.745-15.045 40.45-39.168 50.08-70"/><linearGradient id="b" gradientUnits="userSpaceOnUse" x1="343.166" y1="406.981" x2="343.166" y2="581" gradientTransform="translate(-83 -329)"><stop offset="0" stop-color="#fff"/><stop offset=".28" stop-color="#fbfbfb"/><stop offset=".549" stop-color="#f0f0f0"/><stop offset=".694" stop-color="#e6e6e6"/></linearGradient><path fill="url(#b)" d="M51 252h419.16c3.045-9.416 4.84-19.513 4.84-30.25 1.724-73.809-102.106-149.928-215-143.375C48.639 87.141 46.25 203.688 45.375 219.563c-.373 6.766.789 18.437 5.801 32.437H51z"/><path fill="none" stroke="#494949" stroke-width="11" stroke-miterlimit="10" d="M263.561 369.41s-28.227 55.757-42.701 80.385c-3.909 6.65-2.38 12.176 1.352 12.361C223.5 464.667 327.145 402.834 416 327.5c11.055-9.372 24.692-22.826 35.353-38.525 13.754-18.92 21.969-40.905 21.969-63.334 0-79.436-96.694-143.831-215.974-143.831-119.279 0-215.973 64.395-215.973 143.831 0 79.435 96.694 143.831 215.973 143.831 2.078-.003 4.148-.023 6.213-.062z"/></svg>