<svg xmlns="http://www.w3.org/2000/svg" xmlns:xlink="http://www.w3.org/1999/xlink" width="512" height="512" viewBox="0 0 512 512"><defs><path id="a" d="M0 0h512v512H0z"/></defs><clipPath id="b"><use xlink:href="#a" overflow="visible"/></clipPath><path clip-path="url(#b)" fill="#C5C5C5" d="M0 0h512v512H0z"/><path clip-path="url(#b)" fill="#FFF" d="M309.64 309.839c37.361-18.864 62.968-57.457 62.968-102.007 0-63.135-51.424-114.316-114.861-114.316-63.437 0-114.861 51.181-114.861 114.316 0 44.29 25.308 82.693 62.315 101.676-80.767 25.29-140.017 108.371-140.017 206.971 0 118.679 85.828 214.882 191.705 214.882 105.875 0 191.702-96.203 191.702-214.882-.001-98.167-58.729-180.958-138.951-206.64z"/><g clip-path="url(#b)" fill="none" stroke="#000"><path d="M-.5-54v36M-54 .5h36M-54 731.5h36M-.5 785v-36M511.5-54v36M566 .5h-36M566 731.5h-36M511.5 785v-36"/></g></svg>