<svg xmlns="http://www.w3.org/2000/svg" xmlns:xlink="http://www.w3.org/1999/xlink" width="128" height="128" version="1"><defs><linearGradient id="o"><stop offset="0" stop-color="#fff" stop-opacity=".88"/><stop offset=".5" stop-color="#493a3a" stop-opacity="0"/><stop offset="1" stop-color="#493a3a"/></linearGradient><linearGradient id="n"><stop offset="0" stop-color="#fff" stop-opacity="0"/><stop offset=".5" stop-color="#f2efef" stop-opacity="0"/><stop offset=".897" stop-color="#313c4f" stop-opacity="0"/><stop offset=".961" stop-color="#b5b2af" stop-opacity=".498"/><stop offset="1" stop-color="#cdcbc7"/></linearGradient><linearGradient id="i"><stop offset="0" stop-color="#6d6d6d" stop-opacity="0"/><stop offset="1" stop-color="#c5c4c2"/></linearGradient><linearGradient id="l"><stop offset="0" stop-color="#fff" stop-opacity="0"/><stop offset=".5" stop-color="#f2efef" stop-opacity="0"/><stop offset=".867" stop-color="#313c4f" stop-opacity="0"/><stop offset=".918" stop-color="#b2b2b2" stop-opacity=".232"/><stop offset="1" stop-color="#a19f99"/></linearGradient><linearGradient id="h"><stop offset="0" stop-color="#494949"/><stop offset="1" stop-color="#d4d4d4"/></linearGradient><linearGradient id="f"><stop offset="0" stop-color="#f3f0f0"/><stop offset="1" stop-color="#f3f0f0" stop-opacity="0"/></linearGradient><linearGradient id="g"><stop offset="0" stop-color="#626262"/><stop offset="1" stop-color="#8f8f8f"/></linearGradient><linearGradient id="b"><stop offset="0" stop-color="#f7f4f4"/><stop offset="1" stop-color="#5c4a4a"/></linearGradient><linearGradient id="j"><stop offset="0" stop-color="#fff" stop-opacity="0"/><stop offset=".5" stop-color="#f2efef" stop-opacity="0"/><stop offset=".815" stop-color="#cbc4b6" stop-opacity="0"/><stop offset=".898" stop-color="#e3d9c6" stop-opacity=".498"/><stop offset="1" stop-color="#bdb6a2"/></linearGradient><linearGradient id="m"><stop offset="0" stop-color="#fff"/><stop offset="1" stop-color="#fff" stop-opacity="0"/></linearGradient><filter id="F"><feGaussianBlur stdDeviation="1.309"/></filter><clipPath id="D"><path d="M88 37.28a29.959 29.959 0 1 1-59.917 0 29.959 29.959 0 1 1 59.917 0z" fill="url(#a)" stroke-width="3.4" stroke-linecap="round" stroke-linejoin="round"/></clipPath><radialGradient xlink:href="#b" id="a" gradientUnits="userSpaceOnUse" gradientTransform="translate(9.545 6.13) scale(.83554)" cx="63.492" cy="32.737" fx="71.005" fy="16.637" r="29.959"/><filter id="A"><feGaussianBlur stdDeviation="1.191"/></filter><filter id="u"><feGaussianBlur stdDeviation="2.999"/></filter><clipPath id="s"><path d="M-99.715 102.633c0 18.646 29.362 20.996 36.721 20.996h.007c7.345 0 36.765-2.35 36.765-20.996-3.334-31.319-18.375-61.79-36.775-61.79-18.558 0-33.58 35.275-36.718 61.79z" fill="url(#c)" fill-rule="evenodd" stroke-width=".999"/></clipPath><radialGradient xlink:href="#b" id="c" gradientUnits="userSpaceOnUse" gradientTransform="matrix(.81452 0 0 1.18903 -115.257 -4.11)" cx="64.195" cy="79.678" fx="64.195" fy="79.678" r="37.246"/><filter id="w"><feGaussianBlur stdDeviation=".976"/></filter><filter id="x"><feGaussianBlur stdDeviation="1.952"/></filter><clipPath id="v"><path d="M212.537 102.633c0 18.646 29.363 20.996 36.722 20.996h.007c7.344 0 36.764-2.35 36.764-20.996-3.333-31.319-18.375-61.79-36.775-61.79-18.557 0-33.58 35.275-36.718 61.79z" fill="url(#d)" fill-rule="evenodd" stroke-width=".999"/></clipPath><radialGradient xlink:href="#b" id="d" gradientUnits="userSpaceOnUse" gradientTransform="matrix(.96041 0 0 2.38706 187.83 -102.163)" cx="65.092" cy="72.806" fx="65.092" fy="72.806" r="37.246"/><filter id="I"><feGaussianBlur stdDeviation=".106"/></filter><filter id="O" x="-.054" width="1.107" y="-.161" height="1.322"><feGaussianBlur stdDeviation="1.872"/></filter><filter id="y"><feGaussianBlur stdDeviation="1.158"/></filter><radialGradient xlink:href="#e" id="r" gradientUnits="userSpaceOnUse" gradientTransform="matrix(.88578 0 0 1.23494 7.386 -16.106)" cx="65.092" cy="72.806" fx="74.383" fy="63.986" r="37.246"/><radialGradient xlink:href="#f" id="H" gradientUnits="userSpaceOnUse" gradientTransform="matrix(1 0 0 1.45455 0 -33.543)" cx="78.625" cy="73.795" fx="78.625" fy="73.795" r="2.952"/><linearGradient xlink:href="#g" id="z" gradientUnits="userSpaceOnUse" x1="75.631" y1="115.035" x2="75.631" y2="36.603"/><radialGradient xlink:href="#e" id="t" gradientUnits="userSpaceOnUse" gradientTransform="matrix(.8588 0 0 1.25366 -118.1 -11.053)" cx="64.195" cy="79.678" fx="64.195" fy="79.678" r="37.246"/><linearGradient xlink:href="#h" id="L" gradientUnits="userSpaceOnUse" x1="63.061" y1="49.137" x2="63.061" y2="46.289"/><filter id="K" x="-.049" width="1.098" y="-.169" height="1.338"><feGaussianBlur stdDeviation=".381"/></filter><filter id="M" x="-.088" width="1.175" y="-.271" height="1.543"><feGaussianBlur stdDeviation=".607"/></filter><linearGradient xlink:href="#i" id="J" gradientUnits="userSpaceOnUse" gradientTransform="matrix(1.12445 0 0 1.17964 -6.864 .872)" x1="63.062" y1="48.772" x2="63.061" y2="46.803"/><radialGradient xlink:href="#j" id="E" gradientUnits="userSpaceOnUse" gradientTransform="matrix(1.07321 0 0 1.00167 -3.09 -.946)" cx="59.612" cy="32.668" fx="59.612" fy="32.668" r="29.959"/><linearGradient id="k"><stop offset="0" stop-color="#a3a3a3" stop-opacity="0"/><stop offset="1" stop-color="#b6b6b6" stop-opacity=".712"/></linearGradient><linearGradient id="e"><stop offset="0" stop-color="#f1f1f1"/><stop offset=".227" stop-color="#ddd"/><stop offset=".5" stop-color="#c4c4c4"/><stop offset="1" stop-color="#707070" stop-opacity=".929"/></linearGradient><radialGradient xlink:href="#l" id="G" gradientUnits="userSpaceOnUse" gradientTransform="matrix(1.07321 0 0 1.00167 -3.09 -.946)" cx="55.369" cy="36.077" fx="54.839" fy="18.271" r="29.959"/><radialGradient xlink:href="#e" id="B" gradientUnits="userSpaceOnUse" gradientTransform="translate(9.545 6.13) scale(.83554)" cx="63.492" cy="32.737" fx="71.005" fy="16.637" r="29.959"/><radialGradient xlink:href="#m" id="C" gradientUnits="userSpaceOnUse" cx="76.612" cy="25.895" fx="76.612" fy="25.895" r="3.891"/><filter id="Q"><feGaussianBlur stdDeviation="1.342"/></filter><radialGradient xlink:href="#n" id="S" gradientUnits="userSpaceOnUse" gradientTransform="matrix(1.07321 0 0 1.00167 -3.09 -.946)" cx="55.369" cy="36.077" fx="54.839" fy="18.271" r="29.959"/><radialGradient xlink:href="#l" id="R" gradientUnits="userSpaceOnUse" gradientTransform="matrix(1.07321 0 0 1.00167 -3.09 -.946)" cx="59.612" cy="32.668" fx="59.612" fy="32.668" r="29.959"/><radialGradient xlink:href="#e" id="P" gradientUnits="userSpaceOnUse" gradientTransform="matrix(.88578 0 0 1.23494 7.386 -16.106)" cx="65.306" cy="72.653" fx="74.597" fy="63.833" r="37.246"/><radialGradient xlink:href="#o" id="N" cx="63.866" cy="108.411" fx="63.866" fy="108.411" r="41.862" gradientTransform="matrix(1 0 0 .33333 0 72.274)" gradientUnits="userSpaceOnUse"/><radialGradient xlink:href="#o" id="p" cx="63.866" cy="108.411" fx="63.866" fy="108.411" r="41.862" gradientTransform="matrix(1 0 0 .33333 0 72.274)" gradientUnits="userSpaceOnUse"/><filter id="q"><feGaussianBlur stdDeviation=".643"/></filter></defs><g opacity=".762"><path d="M105.727 108.41a41.862 13.954 0 1 1-83.723 0 41.862 13.954 0 1 1 83.723 0z" transform="matrix(.88029 0 0 1.21446 7.765 -24.56)" fill="url(#p)" filter="url(#q)"/><path d="M26.03 103.546c0 17.887 30.3 20.141 37.892 20.141h.008c7.578 0 37.936-2.254 37.936-20.141-3.44-30.044-18.96-59.273-37.947-59.273-19.149 0-34.65 33.837-37.888 59.273z" fill="url(#r)" fill-rule="evenodd"/><path d="M-63 36.344c-19.566 0-35.41 37.2-38.719 65.156 0 18.431 27.206 21.75 37 22.094-8.487-.34-31-3.265-31-18.688C-92.922 81.274-79.539 49.844-63 49.844c16.4 0 29.81 27.148 32.781 55.062 0 15.44-22.601 18.353-31.062 18.688 9.788-.344 37.062-3.663 37.062-22.094C-27.733 68.479-43.599 36.344-63 36.344z" clip-path="url(#s)" transform="matrix(1.03188 0 0 .95927 129.028 5.093)" fill="url(#t)" fill-rule="evenodd" filter="url(#u)"/><g clip-path="url(#v)" transform="matrix(1.03188 0 0 .95927 -193.234 4.997)" fill-rule="evenodd"><path transform="matrix(.9685 0 0 .9685 57.598 1.287)" d="M197.935 41.257c-19.099 0-34.346 35.892-37.575 63.18 0 19.19 29.795 21.181 37.368 21.181h.031c7.56 0 37.09-1.99 37.09-21.18-3.43-32.233-17.977-63.181-36.914-63.181zm2.094 2.156c14.86.568 27.52 25.914 30.664 52.65 0 16.017-24.562 17.618-30.871 17.618-6.321 0-31.118 1.342-31.118-14.676 2.695-22.777 15.383-55.592 31.325-55.592z" opacity=".257" fill="#eafafe" filter="url(#w)"/><path transform="matrix(.9685 0 0 .9685 57.598 1.287)" d="M198.967 41.36c-19.098 0-34.861 35.789-38.09 63.078 0 19.19 29.175 20.56 36.748 20.56h.031c7.559 0 37.813-1.37 37.813-20.56-3.431-32.233-17.564-63.078-36.502-63.078zm.937.962c15.753 1 29.934 27.818 33.159 56.147 0 16.978-26.782 20.51-33.47 20.51-6.7 0-33.437-3.532-33.437-20.51 2.857-24.144 16.85-56.147 33.748-56.147z" opacity=".401" fill="#bdf2f8" filter="url(#x)"/><path transform="matrix(.9685 0 0 .9685 57.598 1.287)" d="M197.625 41.36c-19.099 0-34.139 35.789-37.368 63.078 0 19.19 29.795 21.283 37.368 21.283h.031c7.559 0 37.296-2.093 37.296-21.284-.046-.436-.105-.876-.156-1.312-2.213 16.126-28.06 19.447-35.077 19.527-7.017.08-36.961-2.021-36.339-21.715 2.994-25.296 17.735-58.244 35.308-59.514-.351-.022-.71-.063-1.063-.063z" fill="#edf7f7" fill-opacity=".797" filter="url(#y)"/></g><path transform="matrix(.94676 0 0 .88015 3.326 11.287)" d="M64 45.281c-5.384.33-9.668 2.877-13.219 6.407C47.23 55.218 44.424 59.73 42 64.03c-5.652 10.604-9.57 23.942-10.938 35.5a.065.065 0 0 1 0 .031l-.03.063v.094c0 4.39 1.782 7.963 4.468 10.625s6.264 4.483 9.938 5.781c7.347 2.596 15.249 3.094 18.562 3.094h.031c3.308 0 11.236-.498 18.594-3.094 3.679-1.298 7.246-3.119 9.938-5.781 2.69-2.662 4.468-6.235 4.468-10.625v-.094L97 99.562a.065.065 0 0 1 0-.03c-1.448-13.6-5.413-26.98-11.094-37.094C80.226 52.322 72.716 45.28 64 45.28zm-.75 4.893c.251-.01.5 0 .75 0 7.954 0 16.97 6.563 22.391 16.215C91.8 76.02 92.588 86.615 94 99.813c.004.034 0 .055 0 .062-.066 3.882-1.58 6.396-3.875 8.188-2.295 1.791-5.351 2.868-8.5 3.874-6.818 2.405-14.617 2.344-17.594 2.344H64c-2.979 0-10.762.051-17.563-2.344-.01-.002-.02.003-.03 0-3.38-.79-6.312-1.95-8.47-3.843-2.163-1.9-3.555-4.553-3.874-8.25 1.325-11.135 2.647-22.247 8.065-32.412 4.108-7.388 13.336-16.919 21.122-17.258z" fill="url(#z)" fill-rule="evenodd" filter="url(#A)"/><path d="M88 37.28a29.959 29.959 0 1 1-59.917 0 29.959 29.959 0 1 1 59.917 0z" transform="matrix(.84403 0 0 .84403 14.928 -4.676)" fill="url(#B)"/><path d="M80.503 25.895a3.891 3.891 0 1 1-7.782 0 3.891 3.891 0 1 1 7.782 0z" transform="matrix(.71416 -.2535 .28234 .7954 14.277 18.949)" fill="url(#C)"/><path transform="matrix(.84403 0 0 .84403 14.928 -4.676)" d="M86.876 37.28A28.835 28.835 0 1 1 58.36 8.445l-.319 28.833z" clip-path="url(#D)" fill="url(#E)" filter="url(#F)"/><path clip-path="url(#D)" d="M87.326 37.28a29.284 29.284 0 1 1-58.569 0 29.284 29.284 0 1 1 58.569 0z" transform="matrix(.84403 0 0 .84403 14.817 -4.676)" fill="url(#G)" filter="url(#F)"/><path d="M81.577 73.795a2.952 4.294 0 1 1-5.904 0 2.952 4.294 0 1 1 5.904 0z" transform="matrix(1.2678 -.33664 .36212 1.1786 -46.763 15.957)" fill="url(#H)" filter="url(#I)"/><path d="M64.031 54.375c-5.163 0-9.343 1.409-9.344 3.156 0 .874 1.057 1.677 2.75 2.25 1.908-1.395 4.27-1.618 6.813-1.618 2.486 0 4.772.185 6.656 1.525 1.536-.565 2.5-1.33 2.5-2.157 0-1.747-4.211-3.156-9.375-3.156z" transform="matrix(1.03041 0 0 1 -1.948 -1)" opacity=".569" fill="url(#J)" filter="url(#K)"/><path transform="matrix(.75134 0 0 .78822 16.665 10.872)" d="M71.38 48.034a8.319 2.683 0 1 1-16.638 0 8.319 2.683 0 1 1 16.637 0z" opacity=".223" fill="url(#L)" filter="url(#M)"/></g><g opacity=".762"><path transform="matrix(.83875 0 0 1.15021 10.418 -15.697)" d="M105.727 108.41a41.862 13.954 0 1 1-83.723 0 41.862 13.954 0 1 1 83.723 0z" fill="url(#N)" filter="url(#O)"/><path d="M26.03 103.546c0 17.887 30.3 20.141 37.892 20.141h.008c7.578 0 37.936-2.254 37.936-20.141-3.44-30.044-18.96-59.273-37.947-59.273-19.149 0-34.65 33.837-37.888 59.273z" fill="url(#P)" fill-rule="evenodd"/><path transform="matrix(1.03188 0 0 .95927 129.028 5.093)" clip-path="url(#s)" d="M-63 36.344c-19.566 0-35.41 37.2-38.719 65.156 0 18.431 27.206 21.75 37 22.094-8.487-.34-31-3.265-31-18.688C-92.922 81.274-79.539 49.844-63 49.844c16.4 0 29.81 27.148 32.781 55.062 0 15.44-22.601 18.353-31.062 18.688 9.788-.344 37.062-3.663 37.062-22.094C-27.733 68.479-43.599 36.344-63 36.344z" fill="url(#t)" fill-rule="evenodd" filter="url(#u)"/><g transform="matrix(1.03188 0 0 .95927 -193.234 4.997)" clip-path="url(#v)" fill-rule="evenodd"><path d="M197.935 41.257c-19.099 0-34.346 35.892-37.575 63.18 0 19.19 29.795 21.181 37.368 21.181h.031c7.56 0 37.09-1.99 37.09-21.18-3.43-32.233-17.977-63.181-36.914-63.181zm2.094 2.156c14.86.568 27.52 25.914 30.664 52.65 0 16.017-24.562 17.618-30.871 17.618-6.321 0-31.118 1.342-31.118-14.676 2.695-22.777 15.383-55.592 31.325-55.592z" transform="matrix(.9685 0 0 .9685 57.598 1.287)" opacity=".257" fill="#6e6959" filter="url(#w)"/><path d="M198.967 41.36c-19.098 0-34.861 35.789-38.09 63.078 0 19.19 29.175 20.56 36.748 20.56h.031c7.559 0 37.813-1.37 37.813-20.56-3.431-32.233-17.564-63.078-36.502-63.078zm.937.962c15.753 1 29.934 27.818 33.159 56.147 0 16.978-26.782 20.51-33.47 20.51-6.7 0-33.437-3.532-33.437-20.51 2.857-24.144 16.85-56.147 33.748-56.147z" transform="matrix(.9685 0 0 .9685 57.598 1.287)" opacity=".401" fill="#a0977e" fill-opacity=".342" filter="url(#Q)"/><path d="M197.625 41.36c-19.099 0-34.139 35.789-37.368 63.078 0 19.19 29.795 21.283 37.368 21.283h.031c7.559 0 37.296-2.093 37.296-21.284-.046-.436-.105-.876-.156-1.312-2.213 16.126-28.06 19.447-35.077 19.527-7.017.08-36.961-2.021-36.339-21.715 2.994-25.296 17.735-58.244 35.308-59.514-.351-.022-.71-.063-1.063-.063z" transform="matrix(.9685 0 0 .9685 57.598 1.287)" fill="#cbcbcb" filter="url(#y)"/></g><path d="M64 45.281c-5.384.33-9.668 2.877-13.219 6.407C47.23 55.218 44.424 59.73 42 64.03c-5.652 10.604-9.57 23.942-10.938 35.5a.065.065 0 0 1 0 .031l-.03.063v.094c0 4.39 1.782 7.963 4.468 10.625s6.264 4.483 9.938 5.781c7.347 2.596 15.249 3.094 18.562 3.094h.031c3.308 0 11.236-.498 18.594-3.094 3.679-1.298 7.246-3.119 9.938-5.781 2.69-2.662 4.468-6.235 4.468-10.625v-.094L97 99.562a.065.065 0 0 1 0-.03c-1.448-13.6-5.413-26.98-11.094-37.094C80.226 52.322 72.716 45.28 64 45.28zm-.75 4.893c.251-.01.5 0 .75 0 7.954 0 17.076 6.45 22.497 16.102 5.408 9.63 6.09 20.34 7.503 33.537.004.034 0 .055 0 .062-.066 3.882-1.58 6.396-3.875 8.188-2.295 1.791-5.351 2.868-8.5 3.874-6.818 2.405-14.617 2.344-17.594 2.344H64c-2.979 0-10.762.051-17.563-2.344-.01-.002-.02.003-.03 0-3.38-.79-6.312-1.95-8.47-3.843-2.163-1.9-3.555-4.553-3.874-8.25 1.325-11.135 2.54-22.247 7.96-32.412 4.108-7.388 13.44-16.919 21.227-17.258z" transform="matrix(.94676 0 0 .88015 3.326 11.287)" fill="url(#z)" fill-rule="evenodd" filter="url(#A)"/><path transform="matrix(.84403 0 0 .84403 14.928 -4.676)" d="M88 37.28a29.959 29.959 0 1 1-59.917 0 29.959 29.959 0 1 1 59.917 0z" fill="url(#B)"/><path transform="matrix(.71416 -.2535 .28234 .7954 14.277 18.949)" d="M80.503 25.895a3.891 3.891 0 1 1-7.782 0 3.891 3.891 0 1 1 7.782 0z" fill="url(#C)" opacity=".436"/><path clip-path="url(#D)" d="M86.876 37.28A28.835 28.835 0 1 1 58.36 8.445l-.319 28.833z" transform="matrix(.84403 0 0 .84403 14.928 -4.676)" fill="url(#R)" filter="url(#F)"/><path transform="matrix(.84403 0 0 .84403 14.817 -4.676)" d="M87.326 37.28a29.284 29.284 0 1 1-58.569 0 29.284 29.284 0 1 1 58.569 0z" clip-path="url(#D)" fill="url(#S)" filter="url(#F)"/><path transform="matrix(1.2678 -.33664 .36212 1.1786 -46.763 15.957)" d="M81.577 73.795a2.952 4.294 0 1 1-5.904 0 2.952 4.294 0 1 1 5.904 0z" fill="url(#H)" filter="url(#I)" opacity=".421"/><path transform="matrix(1.03041 0 0 1 -1.948 -1)" d="M64.031 54.375c-5.163 0-9.343 1.409-9.344 3.156 0 .874 1.057 1.677 2.75 2.25 1.908-1.395 4.27-1.618 6.813-1.618 2.486 0 4.772.185 6.656 1.525 1.536-.565 2.5-1.33 2.5-2.157 0-1.747-4.211-3.156-9.375-3.156z" opacity=".569" fill="url(#J)" filter="url(#K)"/><path d="M71.38 48.034a8.319 2.683 0 1 1-16.638 0 8.319 2.683 0 1 1 16.637 0z" transform="matrix(.75134 0 0 .78822 16.665 10.872)" opacity=".223" fill="url(#L)" filter="url(#M)"/></g></svg>