<svg xmlns="http://www.w3.org/2000/svg" xmlns:xlink="http://www.w3.org/1999/xlink" width="128" height="128" version="1"><defs><linearGradient id="i"><stop offset="0" stop-color="#fff"/><stop offset="1" stop-color="#fff" stop-opacity="0"/></linearGradient><linearGradient id="h"><stop offset="0" stop-color="#f6f6f6"/><stop offset="1" stop-color="#f6f6f6" stop-opacity="0"/></linearGradient><linearGradient id="g"><stop offset="0" stop-color="#fff"/><stop offset="1" stop-color="#fff" stop-opacity="0"/></linearGradient><linearGradient id="f"><stop offset="0" stop-color="#fff"/><stop offset="1" stop-color="#fff" stop-opacity="0"/></linearGradient><linearGradient id="c"><stop offset="0"/><stop offset="1" stop-opacity="0"/></linearGradient><linearGradient id="b"><stop offset="0" stop-color="#fff"/><stop offset="1" stop-color="#fff" stop-opacity="0"/></linearGradient><linearGradient id="d"><stop offset="0" stop-color="#fff"/><stop offset="1" stop-color="#fff" stop-opacity="0"/></linearGradient><linearGradient id="e"><stop offset="0" stop-color="#fff"/><stop offset="1" stop-color="#fff" stop-opacity="0"/></linearGradient><linearGradient id="a"><stop offset="0"/><stop offset="1" stop-opacity="0"/></linearGradient><radialGradient xlink:href="#a" id="j" cx="63.912" cy="115.709" fx="63.912" fy="115.709" r="63.912" gradientTransform="matrix(1 0 0 .1978 0 92.822)" gradientUnits="userSpaceOnUse"/><linearGradient xlink:href="#f" id="k" x1="-36.688" y1="68.546" x2="8.878" y2="68.546" gradientUnits="userSpaceOnUse" gradientTransform="matrix(.97642 0 0 .97642 89.254 -30.605)"/><linearGradient xlink:href="#g" id="l" x1="-140.058" y1="162.549" x2="-68.625" y2="150.664" gradientUnits="userSpaceOnUse" gradientTransform="matrix(.97642 0 0 .97642 188.531 -53.552)"/><linearGradient xlink:href="#g" id="m" gradientUnits="userSpaceOnUse" gradientTransform="matrix(-.97642 0 0 .97642 -58.973 -53.552)" x1="-185.313" y1="159.35" x2="-68.625" y2="150.664"/><linearGradient xlink:href="#h" id="n" x1="91.829" y1="-217.561" x2="75.186" y2="169.162" gradientUnits="userSpaceOnUse" gradientTransform="matrix(.97642 0 0 .97642 1.514 .01)"/><linearGradient xlink:href="#h" id="o" gradientUnits="userSpaceOnUse" x1="121.813" y1="-92.147" x2="75.186" y2="169.162" gradientTransform="matrix(.97642 0 0 .97642 1.514 .01)"/><radialGradient xlink:href="#i" id="p" cx="64.203" cy="140.987" fx="64.203" fy="140.987" r="59.669" gradientTransform="matrix(1.38714 0 0 .91142 -24.856 13.662)" gradientUnits="userSpaceOnUse"/></defs><path d="M64.127 1.383c-5.7.072-11.221 2.757-15.745 9.032-12.47 3.341-15.686 21.062-16.782 33.381-1.393 15.652 6.616 25.489 17.514 29.72-.158 1.776-.554 3.29-1.098 4.21-2.048 3.468-6.698 6.475-14.738 8.758-8.97 2.547-16.086 5.022-21.237 9.55-4.561 4.01-7.507 8.647-7.507 14.586 0 15.416 119.338 16.232 119.338 0 0-5.939-2.946-10.576-7.506-14.585-5.095-4.479-12.21-7.11-21.238-9.673-8.1-2.3-12.746-5.212-14.768-8.635-.675-1.143-1.095-3.167-1.16-5.523 9.917-4.632 17.762-13.575 18.919-26.76 1.836-20.93-16.89-44.28-33.992-44.061z" stroke="#000" stroke-width="1.953" stroke-opacity=".207"/><path d="M50.893 3.281V.487 3.28z" fill="#fff" fill-opacity=".757"/><path d="M127.824 115.71A63.912 12.642 0 1 1 0 115.71a63.912 12.642 0 1 1 127.824 0z" transform="matrix(1 0 0 .41667 .266 74.258)" opacity=".381" fill="url(#j)"/><path d="M64.127 1.383c-5.7.072-11.221 2.757-15.745 9.032-12.47 3.341-15.686 21.062-16.782 33.381-1.393 15.652 6.616 25.489 17.514 29.72-.158 1.776-.554 3.29-1.098 4.21-2.048 3.468-6.698 6.475-14.738 8.758-8.97 2.547-16.086 5.022-21.237 9.55-4.561 4.01-7.507 8.647-7.507 14.586 0 15.416 119.338 16.232 119.338 0 0-5.939-2.946-10.576-7.506-14.585-5.095-4.479-12.21-7.11-21.238-9.673-8.1-2.3-12.746-5.212-14.768-8.635-.675-1.143-1.095-3.167-1.16-5.523 9.917-4.632 17.762-13.575 18.919-26.76 1.836-20.93-16.89-44.28-33.992-44.061z"/><path d="M64.127 1.383c-5.7.072-11.221 2.757-15.745 9.032-12.47 3.341-15.686 21.062-16.782 33.381-1.393 15.652 6.616 25.489 17.514 29.72-.158 1.776-.554 3.29-1.098 4.21-2.048 3.468-6.698 6.475-14.738 8.758-8.97 2.547-16.086 5.022-21.237 9.55-4.561 4.01-7.507 8.647-7.507 14.586 0 15.416 119.338 16.232 119.338 0 0-5.939-2.946-10.576-7.506-14.585-5.095-4.479-12.21-7.11-21.238-9.673-8.1-2.3-12.746-5.212-14.768-8.635-.675-1.143-1.095-3.167-1.16-5.523 9.917-4.632 17.762-13.575 18.919-26.76 1.836-20.93-16.89-44.28-33.992-44.061z"/><path d="M63.806 2.319c-3.601.046-7.123 1.162-10.375 3.54 2.947-1.868 7.703-2.111 10.896-1.82 15.05 1.377 34.238 22.174 32.403 43.104-.91 10.362-5.947 18.101-12.877 23.19 7.479-5.064 12.99-13.063 13.944-23.953C99.633 25.45 80.907 2.1 63.806 2.32z" fill="url(#k)"/><path d="M79.147 75.901c-.047.023-.098.036-.145.058.061 2.244.461 4.17 1.104 5.258 1.924 3.258 6.347 6.03 14.058 8.22 8.593 2.44 15.366 4.943 20.215 9.207 4 3.516 6.688 7.543 7.087 12.576.025-.16.058-.33.058-.494 0-5.653-2.804-10.066-7.145-13.883-4.85-4.264-11.622-6.768-20.215-9.208-7.71-2.188-12.134-4.961-14.058-8.22-.47-.793-.786-2.03-.959-3.514z" fill="url(#l)"/><path d="M50.41 75.901c.047.023.098.036.146.058-.062 2.244-.461 4.17-1.104 5.258-1.925 3.258-6.348 6.03-14.058 8.22-8.594 2.44-15.366 4.943-20.215 9.207-4 3.516-6.689 7.543-7.087 12.576-.026-.16-.058-.33-.058-.494 0-5.653 2.803-10.066 7.145-13.883 4.85-4.264 11.621-6.768 20.215-9.208 7.71-2.188 12.133-4.961 14.058-8.22.469-.793.785-2.03.958-3.514z" fill="url(#m)"/><path d="M64.127 1.383c-5.7.072-11.221 2.757-15.745 9.032-12.47 3.341-15.686 21.062-16.782 33.381-1.393 15.652 6.616 25.489 17.514 29.72-.158 1.776-.554 3.29-1.098 4.21-2.048 3.468-6.698 6.475-14.738 8.758-8.97 2.547-16.086 5.022-21.237 9.55a29.316 29.316 0 0 0-2.99 3.052c34.74 13.12 77.187-5.218 111.403 1.373-1.135-1.564-2.512-3.038-4.088-4.424-5.095-4.479-12.21-7.11-21.238-9.673-8.1-2.3-12.746-5.212-14.768-8.635-.675-1.143-1.095-3.167-1.16-5.523 9.917-4.632 17.762-13.575 18.919-26.76 1.836-20.93-16.89-44.28-33.992-44.061z" opacity=".193" fill="url(#n)"/><path d="M64.127 1.383c-5.7.072-11.221 2.757-15.745 9.032-12.47 3.341-15.686 21.062-16.782 33.381-1.01 11.343 2.918 19.615 9.306 24.93 5.593-25.64 19.347-45.543 41.01-59.837-5.48-4.683-11.73-7.584-17.79-7.506zm27.462 19.01c-22.175 18.25-31.657 42.666-29.384 79.242 20.34-.46 40.536-.968 58.25.824-1.136-1.564-2.513-3.038-4.09-4.424-5.094-4.479-12.209-7.11-21.237-9.673-8.1-2.3-12.746-5.212-14.768-8.635-.675-1.143-1.095-3.167-1.16-5.523 9.917-4.632 17.762-13.575 18.919-26.76.749-8.538-1.942-17.472-6.53-25.052z" opacity=".148" fill="url(#o)"/><path d="M64.127 1.383c-5.7.072-11.221 2.757-15.745 9.032-12.47 3.341-15.686 21.062-16.782 33.381-1.393 15.652 6.616 25.489 17.514 29.72-.158 1.776-.554 3.29-1.098 4.21-2.048 3.468-6.698 6.475-14.738 8.758-8.97 2.547-16.086 5.022-21.237 9.55-4.561 4.01-7.507 8.647-7.507 14.586 0 15.416 119.338 16.232 119.338 0 0-5.939-2.946-10.576-7.506-14.585-5.095-4.479-12.21-7.11-21.238-9.673-8.1-2.3-12.746-5.212-14.768-8.635-.675-1.143-1.095-3.167-1.16-5.523 9.917-4.632 17.762-13.575 18.919-26.76 1.836-20.93-16.89-44.28-33.992-44.061z" fill="url(#p)" opacity=".418"/></svg>