<svg viewBox="0 0 300 300" xmlns="http://www.w3.org/2000/svg"><path d="m109.5 197.5c0 4 1 5 1 5h34c10 0 21-1 21-1v-23l-1-4h-2c-2 0-54.5.5-54.5.5v11z" fill="#26a9e0"/><path d="m163.5 174.5v25s-52 1.5-53.75 1l.61 1.79 28.9.21s19.65-.79 21.7-.65a9 9 0 0 0 4.04-.85l.41-22.84s-1.41-4.16-1.91-3.66z" opacity=".4"/><g stroke="#000"><path d="m109.5 197.5c0 4 1 5 1 5h34c10 0 21-1 21-1v-23l-1-4h-2c-2 0-54.5.5-54.5.5v11z" fill="none" stroke-miterlimit="10"/><path d="m113.5 200.5h27c10 0 23-1 23-1v-24" fill="none" stroke-linecap="round" stroke-linejoin="round" stroke-width=".5"/><path d="m163.5 199.5 1.5 1.5" fill="none" stroke-miterlimit="10" stroke-width=".5"/><path d="m162 177v12" fill="none" stroke-linecap="round" stroke-linejoin="round" stroke-width=".5"/><path d="m112.5 177.5h27c9 0 20-1 20-1v20l-54 1a34.21 34.21 0 0 1 2-11 44.27 44.27 0 0 1 5-9z" fill="#f6921e" stroke-linecap="round" stroke-linejoin="round" stroke-width="1.2"/><path d="m159 176.5s-3 7.5-4 11.5a87 87 0 0 0 -1.59 8.61l-12.91.19s-1-2.3 1-7.3 5-12 5-12 11-.5 12.5-1z" fill="#f9ec31" stroke-miterlimit="10" stroke-width=".75"/><path d="m128.5 196.89h-11a19.28 19.28 0 0 1 2-11.22c3-6.12 3.75-8.16 3.75-8.16h11.56s-1.31 3.06-2.31 6.12-4 6.12-4 10.2z" fill="#f9ec31" stroke-miterlimit="10" stroke-width=".75"/><path d="m135.13 177.5h11.37l-5.43 13.25a8.08 8.08 0 0 0 -.82 4c.25 1.89 0 2.25 0 2.25h-11.75a23.82 23.82 0 0 1 .92-7.35c1.08-3.08 2.1-3 3.59-7.58s2.12-4.57 2.12-4.57z" fill="#f05a27" stroke-linecap="round" stroke-linejoin="round" stroke-width=".75"/></g></svg>