<svg viewBox="0 0 300 300" xmlns="http://www.w3.org/2000/svg"><g fill="#26a9e0"><path d="m122 180s1 10 2 14 1.5 6.5 1.5 6.5 3 0 4-1-2-17-2-18v-2s-1.49 0-3 .11a12 12 0 0 0 -2.5.39z"/><path d="m131 179s1 10 2 14 1.5 6.5 1.5 6.5 3 0 4-1-2-17-2-18v-2s-1.49 0-3 .11a12 12 0 0 0 -2.5.39z"/><path d="m141 179s1 10 2 14 1.5 6.5 1.5 6.5 3 0 4-1-2-17-2-18v-2s-1.49 0-3 .11a12 12 0 0 0 -2.5.39z"/><path d="m149 178s1 10 2 14 1.5 6.5 1.5 6.5 3 0 4-1-2-17-2-18v-2s-1.49 0-3 .11a12 12 0 0 0 -2.5.39z"/></g><path d="m122 180s1 10 2 14 1.5 6.5 1.5 6.5 3 0 4-1-2-17-2-18v-2s-1.49 0-3 .11a12 12 0 0 0 -2.5.39z" fill-opacity=".4"/><path d="m122 180s1 10 2 14 1.5 6.5 1.5 6.5 3 0 4-1-2-17-2-18v-2s-1.49 0-3 .11a12 12 0 0 0 -2.5.39z" fill="none" stroke="#000" stroke-linecap="round" stroke-linejoin="round"/><path d="m124.5 180.5s1 11 2 14a15.77 15.77 0 0 1 1 4s2.34-.11 2.17.44a31 31 0 0 0 -.82-8.63 59 59 0 0 1 -1.35-10.07v-.75h-3z" fill="#461917" stroke="#000" stroke-linecap="round" stroke-linejoin="round" stroke-width=".5"/><path d="m125.85 200.49 1.65-1.99" fill="#461917" stroke="#000" stroke-linecap="round" stroke-linejoin="round" stroke-width=".5"/><path d="m131 179s1 10 2 14 1.5 6.5 1.5 6.5 3 0 4-1-2-17-2-18v-2s-1.49 0-3 .11a12 12 0 0 0 -2.5.39z" fill-opacity=".4"/><path d="m131 179s1 10 2 14 1.5 6.5 1.5 6.5 3 0 4-1-2-17-2-18v-2s-1.49 0-3 .11a12 12 0 0 0 -2.5.39z" fill="none" stroke="#000" stroke-linecap="round" stroke-linejoin="round"/><path d="m133.5 179.5s1 11 2 14a15.77 15.77 0 0 1 1 4s2.34-.11 2.17.44a31 31 0 0 0 -.82-8.63 59 59 0 0 1 -1.35-10.07v-.75h-3z" fill="#461917" stroke="#000" stroke-linecap="round" stroke-linejoin="round" stroke-width=".5"/><path d="m134.85 199.49 1.65-1.99" fill="#461917" stroke="#000" stroke-linecap="round" stroke-linejoin="round" stroke-width=".5"/><path d="m141 179s1 10 2 14 1.5 6.5 1.5 6.5 3 0 4-1-2-17-2-18v-2s-1.49 0-3 .11a12 12 0 0 0 -2.5.39z" fill-opacity=".4"/><path d="m141 179s1 10 2 14 1.5 6.5 1.5 6.5 3 0 4-1-2-17-2-18v-2s-1.49 0-3 .11a12 12 0 0 0 -2.5.39z" fill="none" stroke="#000" stroke-linecap="round" stroke-linejoin="round"/><path d="m143.5 179.5s1 11 2 14a15.77 15.77 0 0 1 1 4s2.34-.11 2.17.44a31 31 0 0 0 -.82-8.63 59 59 0 0 1 -1.35-10.07v-.75h-3z" fill="#461917" stroke="#000" stroke-linecap="round" stroke-linejoin="round" stroke-width=".5"/><path d="m144.85 199.49 1.65-1.99" fill="#461917" stroke="#000" stroke-linecap="round" stroke-linejoin="round" stroke-width=".5"/><path d="m149 178s1 10 2 14 1.5 6.5 1.5 6.5 3 0 4-1-2-17-2-18v-2s-1.49 0-3 .11a12 12 0 0 0 -2.5.39z" fill-opacity=".4"/><path d="m149 178s1 10 2 14 1.5 6.5 1.5 6.5 3 0 4-1-2-17-2-18v-2s-1.49 0-3 .11a12 12 0 0 0 -2.5.39z" fill="none" stroke="#000" stroke-linecap="round" stroke-linejoin="round"/><path d="m151.5 178.5s1 11 2 14a15.77 15.77 0 0 1 1 4s2.34-.11 2.17.44a31 31 0 0 0 -.82-8.63 59 59 0 0 1 -1.35-10.07v-.75h-3z" fill="#461917" stroke="#000" stroke-linecap="round" stroke-linejoin="round" stroke-width=".5"/><path d="m152.85 198.49 1.65-1.99" fill="#461917" stroke="#000" stroke-linecap="round" stroke-linejoin="round" stroke-width=".5"/></svg>