<svg viewBox="0 0 300 300" xmlns="http://www.w3.org/2000/svg"><path d="m149 179s-12 2-15 2-13.5 1.5-15.5 5.5-1 11.5 8 10.5 12-1.5 20-2.5 13-4 14-6 0-5-2-7-4-3-9.5-2.5z" fill="#26a9e0"/><g stroke="#000"><path d="m149 179s-12 2-15 2-11.5.5-14.5 4.5c-4 4-2 11.5 7 11.5 8 0 12-1.5 20-2.5s13-4 14-6 0-5-2-7-4-3-9.5-2.5z" fill-opacity=".4" stroke-miterlimit="10"/><path d="m121.5 184.5s-3 4-1 6 4 3 12 2 13-3 18-3 10.83-2.26 9.42-6.13-5.75-5.12-8.58-4.5-12.7 1.53-16.26 2.08-6.7-.1-10.63 1.73-2.95 1.82-2.95 1.82z" fill="#461917" stroke-linecap="round" stroke-linejoin="round" stroke-width=".5"/></g></svg>