<svg viewBox="0 0 300 300" xmlns="http://www.w3.org/2000/svg"><path d="m170.5 168.5s-19.5 8.5-29.5 10.5l-1 .2a112 112 0 0 1 -32.68 1.74q-1.88-.18-3.82-.44l6 20a51.86 51.86 0 0 0 26 5c15-1 35-7 41-15z" fill="#26a9e0"/><path d="m110.5 199.5 2-2s-3-10-4-13-1.87-3.63-1.87-3.63l-3.13-.37 3.38 11.26 2.5 8.33z" fill-opacity=".4" stroke="#000" stroke-linecap="round" stroke-linejoin="round"/><path d="m118 181s3.13 7.7 4.06 9.85 2.31 5.09 2.12 7.12l.19 4a72.8 72.8 0 0 1 7.93.57c2.7.46 11.7-1.54 11.7-1.54a14.36 14.36 0 0 1 -.15-3c.15-1-3.27-16.16-3.27-16.16l-1-2.27-4.58.43-9.08 1.13z" fill="#ee4036"/><path d="m155.48 174.52 3.52 10.63 2 9.85v2s10.25-4.55 12.63-6.27l2.37-1.73-3.63-13.65-1.85-6.79z" fill="#f05a28"/><g stroke="#000" stroke-linecap="round" stroke-linejoin="round"><path d="m113.5 198.5s2 3 14 4 35-6 35-6 12.06-5.5 13.5-7.73l.47 1.73s-7.38 11-40.69 15c0 0-16.31 1-26.31-5l3-3z" fill-opacity=".4"/><path d="m119.94 181.44s2.56 10.06 3.56 13.06a27.84 27.84 0 0 1 .88 7.67s-7.88.33-11.88-4.67l-5-15a5.38 5.38 0 0 0 -1-1.7 80.36 80.36 0 0 0 13.44.64z" fill="#faaf40" stroke-width=".75"/><path d="m140.5 181.5c0 .14 4.14 18 3.56 19.5 0 0 15.93-2.76 17.18-4.13 0 0-1.75-10.37-2.75-13.37s-3-9-3-9-7.82 3-10.4 3.47a54.09 54.09 0 0 0 -5.58 1.51 6 6 0 0 1 .99 2.02z" fill="#faaf40" stroke-width=".75"/><path d="m170.5 168.5s-19.5 8.5-29.5 10.5l-1 .2a112 112 0 0 1 -32.68 1.74q-1.88-.18-3.82-.44l6 20a51.86 51.86 0 0 0 26 5c15-1 35-7 41-15z" fill="none"/></g></svg>