<svg viewBox="0 0 300 300" xmlns="http://www.w3.org/2000/svg"><path d="m126 180a129.54 129.54 0 0 1 3 25 19.93 19.93 0 0 0 10 1 24.23 24.23 0 0 0 8.5-3.5s-4-23-4-25c0 0-6 2-9 2-1.54 0-3.73.13-5.51.26s-2.99.24-2.99.24z" fill="#26a9e0"/><g stroke="#000" stroke-linecap="round" stroke-linejoin="round"><path d="m126 180a129.54 129.54 0 0 1 3 25 19.93 19.93 0 0 0 10 1 24.23 24.23 0 0 0 8.5-3.5s-4-23-4-25c0 0-6 2-9 2-1.54 0-3.73.13-5.51.26s-2.99.24-2.99.24z" fill="none"/><path d="m131.5 190.71a113.49 113.49 0 0 1 1 12.25l-3 1.54s-1-14-2.28-18.07c-.72-2.86-1.15-6.11-1.15-6.11l3.43.18s1 2.05 2 10.21z" fill-opacity=".4" stroke-width=".75"/><path d="m129.29 205.11 3.21-1.61a32 32 0 0 0 7-1 53.36 53.36 0 0 0 7.56-2.57l.44 2.57s-4.93 3.27-7 3.14-2.43 2.07-11.21-.53z" fill-opacity=".4" stroke-width=".75"/><path d="m131.81 193.42c.93.47 1.84.92 1.69-.92 0 0 0-2 1-2s7-1 7-1a1 1 0 0 1 1 1c0 1 0 3 1 2a3.44 3.44 0 0 1 2.12-1" fill="none" stroke-width=".75"/></g></svg>