<svg viewBox="0 0 300 300" xmlns="http://www.w3.org/2000/svg"><path d="m148 175s-6.5.5-12.5 1.5a83.3 83.3 0 0 1 -12 1v14c0 2 3 13 13 12s13-7 13-11-1-17-1-17 0-1-.5-.5z" fill="#26a9e0"/><g stroke="#000" stroke-miterlimit="10"><path d="m148 175s-6.5.5-12.5 1.5a83.3 83.3 0 0 1 -12 1v14c0 2 3 13 13 12s13-7 13-11-1-17-1-17 0-1-.5-.5z" fill-opacity=".4"/><path d="m129.59 177.21.41 13.79s1 7 7 8 12-.83 12.5-4.92-1-19.58-1-19.58l-10.88 1.67c-2.12.33-8.03 1.04-8.03 1.04z" fill="#f6921e"/><path d="m137.25 176.19.22 22.88s-7-.57-7.39-7.64c-.58-4.93-.58-13.93-.58-13.93z" fill="#f9ec31" stroke-width=".75"/><path d="m129.59 177.21.41 13.79s1 7 7 8 12-.83 12.5-4.92-1-19.58-1-19.58l-10.88 1.67c-2.12.33-8.03 1.04-8.03 1.04z" fill="none"/></g></svg>