<svg viewBox="0 0 300 300" xmlns="http://www.w3.org/2000/svg"><path d="m180.45 252.21s-17.95-2.71-29.95 2.29-15 8-16 24c0 0 1 27 1 28s49 1 49 1v-9a27.15 27.15 0 0 1 -3-13c0-8 7-6.16 7-6.16s-11.5-.34-11.26-16.09a16.2 16.2 0 0 1 3.21-11.04z" fill="#26a9e0"/><path d="m133.5 277.5s-6.92-1.5-8-5.25l-.68-1.62c-.37-6.66 1.07-12 5.72-15 0 0 5.17-4.37 11.55-4.24 0 0 5.37.13 7.37 3.13 0 0-9 3.6-12 9.3s-3.09 13.32-3 14z" fill="#26a9e0"/><path d="m188.5 247.5s-8 2-10 8-3 19 8 23 19-7 19-17-4-16-17-14z" fill="#26a9e0"/><path d="m134.5 254.5s3-1 3 0-6 5-7 10 0 8-2 8-4.67.09-2.84-10.45a13 13 0 0 1 8.84-7.55z" fill="#fff" fill-opacity=".4"/><path d="m133.5 277.5s-6.92-1.5-8-5.25l-.68-1.62c-.37-6.66 1.07-12 5.72-15 0 0 5.17-4.37 11.55-4.24 0 0 5.37.13 7.37 3.13 0 0-9 3.6-12 9.3s-3.09 13.32-3 14z" fill="none" stroke="#000" stroke-miterlimit="10"/><path d="m189.5 248.5s9 0 9 10-4 16-9 17-7 .77-7 .77a12.77 12.77 0 0 0 8 3.07c5 .16 15-4.84 15-17.84s-7.26-14.64-14.13-14.32-2.87 1.32-1.87 1.32z" fill-opacity=".2"/><path d="m188.5 247.5s-8 2-10 8-3 19 8 23 19-7 19-17-4-16-17-14z" fill="none" stroke="#000" stroke-miterlimit="10"/><path d="m201.86 273.17s9.64 10.33 9.64 28.33h-13s2.74-14.31-7.13-22.15a11.59 11.59 0 0 0 10.49-6.18z" fill="#6d6e70" stroke="#000" stroke-miterlimit="10"/><path d="m197.5 279.5s5 8 6 15 0 9 0 9h8s1.5-10.5-4.74-22.76c0 0-3.26-6.24-5.26-7.24a22 22 0 0 1 -4.74 4.65z" fill-opacity=".2"/><path d="m180.45 252.21s-17.95-2.71-29.95 2.29-15 8-16 24c0 0 1 27 1 28s49 1 49 1v-9a27.15 27.15 0 0 1 -3-13c0-8 7-6.16 7-6.16s-11.5-.34-11.26-16.09a16.2 16.2 0 0 1 3.21-11.04z" fill="none" stroke="#000" stroke-miterlimit="10"/><path d="m169.5 304.5s-7-21 0-42c0 0 3.39-7.79 10.2-10.39l.8.39s-3.64 3.11-3.32 10.06 2.16 14.4 9.74 16.17a5.19 5.19 0 0 0 -5 3.77c-1.44 4 .38 11.28 1.47 13.64a13.05 13.05 0 0 1 1.11 4.86z" fill-opacity=".2" stroke="#000" stroke-miterlimit="10"/><path d="m142.5 259.5a2.19 2.19 0 0 1 3 1q1.5 3-3 9c-3 4-3 14-2 19s2 10 2 13h-7.16s-1.34-17.5-.59-26.24 2.49-12.37 6.12-15.56z" fill="#fff" fill-opacity=".4"/><g stroke="#000"><path d="m150 254.71s-4.5-4.21-10.5-3.21-14 6-15 15 9 12 10 12c0 0-2-18.58 15.5-23.79z" fill="none" stroke-miterlimit="10"/><path d="m130.17 276.81a64.62 64.62 0 0 1 -1.51 10.87c-1.2 5.22-3.35 11-7.16 13.82l13.79-.59s-.79-21.41-.79-22.41z" fill="#6d6e70" stroke-miterlimit="10"/><path d="m134.5 290.5s-2.86-2.88-5.93-2.44" fill="none" stroke-miterlimit="10"/><path d="m124 299s5.55-1.48 9 2" fill="none" stroke-miterlimit="10"/><path d="m150 192s1 61 2 64c0 0 2 5 10 3 0 0 6-1 6-7 0 0-3.5-40.5-2.5-60.5 0 0-13 0-15.5.5z" fill="#6d6e70" stroke-miterlimit="10"/><path d="m164.5 202.5s0 3-5 3-8.56-1-9.28-1.5" fill="none" stroke-linecap="round" stroke-linejoin="round"/><path d="m165 214.5s-1 2-5.18 2a39.35 39.35 0 0 1 -9.38-1.58" fill="none" stroke-linecap="round" stroke-linejoin="round"/><path d="m166 224.5s0 2-4.62 3-10.38-1-10.38-1" fill="none" stroke-miterlimit="10"/><path d="m166 233.5s0 2-3.21 3a16.53 16.53 0 0 1 -11.79-1" fill="none" stroke-miterlimit="10"/><path d="m167 244.5a7 7 0 0 1 -5.17 4c-4.13 1-10.48-1.51-10.48-1.51" fill="none" stroke-miterlimit="10"/><path d="m207 281.6s-4-2.4-12 2.4" fill="none" stroke-miterlimit="10"/><path d="m211.42 296.16s-2.24-4.33-12.58 1.51" fill="none" stroke-miterlimit="10"/></g><path d="m159 191.5h6.5v10s1 20 .89 29.33a182.26 182.26 0 0 0 1.61 21.92c-.5 4.25-5.5 5.75-5.5 5.75v-2c0-2 1-15 1-23s-4-40-4-40z" fill-opacity=".2"/></svg>