<svg viewBox="0 0 300 300" xmlns="http://www.w3.org/2000/svg"><path d="m95.13 227.69s-20.63 4.81-21.63 20.81c-.44 7.05 4.25 12.09 9.63 15.53a52.45 52.45 0 0 0 14.79 6.13s-3.16-18.66-2.79-30.66 0-11.81 0-11.81z" fill="#26a9e0"/><path d="m97.5 301.5s2-21 0-35-2-29-2-36 14-26.11 46-28.05 59-1.95 63 18.05 3 30 3 30 2 53 0 55-110-4-110-4z" fill="#26a9e0"/><path d="m204.5 220.5s28 1 29 23-16.9 23.5-25.5 24.74c0 0 1.5-34.74-3.5-47.74z" fill="#26a9e0" stroke="#000" stroke-miterlimit="10"/><path d="m95.5 230.5s-7 20 40 23 69-15.69 69.51-30.35-12.33-22.39-48.92-21.52-55.59 10.87-60.59 28.87z" fill="none" stroke="#000" stroke-miterlimit="10"/><path d="m87.5 232.5s-9 9-9 14 6 16 2 15-7.57-12-5.79-18.48 11.79-13.52 12.79-10.52z" fill="#fff" fill-opacity=".4"/><g stroke="#000" stroke-miterlimit="10"><path d="m97.5 301.5s2-21 0-35-2-29-2-36 14-26.11 46-28.05 59-1.95 63 18.05 3 30 3 30 2 53 0 55-110-4-110-4z" fill="none"/><path d="m102.5 227.5s-4 22 38 21c0 0 56 2 57-26s-69-14-69-14-22 6-26 19z" fill-opacity=".4"/><path d="m95.5 230.5s-7 20 40 23 69-15.69 69.51-30.35-12.33-22.39-48.92-21.52-55.59 10.87-60.59 28.87z" fill="none"/><path d="m95.13 227.69s-20.63 4.81-21.63 20.81c-.44 7.05 4.25 12.09 9.63 15.53a52.45 52.45 0 0 0 14.79 6.13s-3.16-18.66-2.79-30.66 0-11.81 0-11.81z" fill="none"/><path d="m204.5 220.5s28 1 29 23-16.9 23.5-25.5 24.74c0 0 1.5-34.74-3.5-47.74z" fill="none"/></g><path d="m104.5 263.5a4.45 4.45 0 0 0 2 5c3 2 7 0 6-2s-6-6-8-3z" fill="#fff" fill-opacity=".4"/><path d="m109.5 276.5s-5-1-5 9a161.75 161.75 0 0 0 1 18l11 1s-3-5-3-14-1-12-4-14z" fill="#fff" fill-opacity=".4"/><path d="m224.9 263.3s-1.4 20.2 16.6 39.2h-22s-7.35-6.33-11.18-20.67l.18-13.33s9.8-.4 16.4-5.2z" fill="#6d6e70" stroke="#000" stroke-miterlimit="10"/><path d="m208.5 281.5a10.58 10.58 0 0 1 11-6c8 1 7.71 3 7.71 3" fill="none" stroke="#000" stroke-miterlimit="10"/><path d="m215.68 298s4.82-4.52 10.82-4.52a18.1 18.1 0 0 1 9.41 2.26" fill="none" stroke="#000" stroke-miterlimit="10"/><path d="m217.85 223.44s9.65 6.06 7.65 17.06-8 16.09-17 18.54v9.46s24.08-.06 25-22.53c.04.03 2.71-12.58-15.65-22.53z" opacity=".2"/><path d="m76.5 302.5s9-10 8-24l-1-14 14 6s2 24 0 31-21 1-21 1z" fill="#6d6e70" stroke="#000" stroke-miterlimit="10"/><path d="m97.5 282.5s-3.87-3-12.94-1" fill="none" stroke="#000" stroke-miterlimit="10"/><path d="m97.5 298.5s-2.26-5.48-16.63-2.74" fill="none" stroke="#000" stroke-miterlimit="10"/><path d="m90.5 270.5s7 25 0 32l7-1v-31l-8.76-3.76z" fill-opacity=".2"/><path d="m85.5 273.5s5 22-2 29-4.6-3.27-4.6-3.27 4.73-4.71 5.66-15.22z" fill-opacity=".2"/><path d="m225.8 272.89s-12.3-6.39-12.3.61 11 28 14 31-6 0-6 0-10.71-12.76-12.36-19.88-.64-16.12-.64-16.12l16.4-5.2z" fill-opacity=".2"/><path d="m197.51 304.5s4-34 0-53c-2.39-11.36-2.58-11.5-2.55-11.32 0 0 8.57-4.37 10.06-17s3.49 45.35 3.49 45.35v37z" fill-opacity=".2"/><circle cx="104" cy="254" r="1.5"/><circle cx="115.5" cy="258.5" r="1.5"/><circle cx="129.5" cy="261.5" r="1.5"/><circle cx="146.5" cy="262.5" r="1.5"/><circle cx="164.5" cy="260.5" r="1.5"/><circle cx="180.5" cy="255.5" r="1.5"/><circle cx="193.5" cy="248.5" r="1.5"/><circle cx="202.5" cy="241.5" r="1.5"/><path d="m139.5 181.5 1 39s0 7 10 7 11-10 11-10a155.16 155.16 0 0 1 -3-16c-1-8 0-20 0-20z" fill="#6d6e70" stroke="#000" stroke-miterlimit="10"/><path d="m158 185.5s.33 3.92-18.35 2" fill="none" stroke="#000" stroke-miterlimit="10"/><path d="m158 197.5s0 6-17.5 1" fill="none" stroke="#000" stroke-miterlimit="10"/><path d="m160 210.5s-2.35 7-20 2" fill="none" stroke="#000" stroke-miterlimit="10"/><path d="m151.5 183.5a14.82 14.82 0 0 0 0 10c2 5 5 18 4 24a61.38 61.38 0 0 1 -2.35 9.74s9.35-4.74 8.35-9.74-2.37-8.51-3.18-17.76a104.59 104.59 0 0 1 .18-18.24h-6.4z" fill-opacity=".2"/></svg>