<svg viewBox="0 0 300 300" xmlns="http://www.w3.org/2000/svg"><path d="m145.5 301.5s-1-18-1-23c0 0 .37-3.41 15.68-2.2s10.15-.26 10.15-.26 5.17-.54 5.17 2.46 0 19 3 23z" fill="#26a9e0"/><path d="m159.5 286.5s16-1 16-8c0 0 4-3-14-2h-12s-5 0-5 2-1 7 15 8z" fill="#fff" fill-opacity=".2" stroke="#000" stroke-miterlimit="10"/><path d="m145.5 301.5s-1-18-1-23c0 0 .37-3.41 15.68-2.2s10.15-.26 10.15-.26 5.17-.54 5.17 2.46 0 19 3 23z" fill="none" stroke="#000" stroke-miterlimit="10"/><path d="m167.5 282.5 4.79.67.55 18.33h5.66s-2.64-3-2.82-15l-.18-8s-1-3-4-2.5v3.5a6.93 6.93 0 0 1 -4 3z" fill-opacity=".2"/><circle cx="164" cy="291" r="1.5"/><circle cx="155.5" cy="291.5" r="1.5"/><circle cx="148.5" cy="288.5" r="1.5"/><circle cx="171.5" cy="288.5" r="1.5"/><path d="m146 200s3 68 2 79c0 0 2 6 12 5s11.5-4.5 11.5-4.5-3-75-2-80c0 0-18 0-23.5.5z" fill="#6d6e70" stroke="#000" stroke-miterlimit="10"/><path d="m161.5 200.5s0 20 1 27 3 24 4 35a166.5 166.5 0 0 1 .61 20s4.39-2 4.39-3-1.38-41.67-1.69-48.33-.31-31.67-.31-31.67h-8z" fill-opacity=".2"/><g fill="none" stroke="#000" stroke-miterlimit="10"><path d="m146.43 210.28a31.28 31.28 0 0 0 13.07 3.22c7 0 9.83-3.22 9.83-3.22"/><path d="m147.43 222.28a31.28 31.28 0 0 0 13.07 3.22c7 0 9.83-3.22 9.83-3.22"/><path d="m147.43 234.28a31.28 31.28 0 0 0 13.07 3.22c7 0 9.83-3.22 9.83-3.22"/><path d="m147.43 246.28a31.28 31.28 0 0 0 13.07 3.22c7 0 9.83-3.22 9.83-3.22"/><path d="m148.43 259.28a31.28 31.28 0 0 0 13.07 3.22c7 0 9.83-3.22 9.83-3.22"/><path d="m148.43 271.28a31.28 31.28 0 0 0 13.07 3.22c7 0 9.83-3.22 9.83-3.22"/></g><path d="m144.5 281.5 2 21 33-1s-4-6-4-23c0 0-1 8-15 8s-15-4-16-5z" fill-opacity=".2"/></svg>