<svg viewBox="0 0 300 300" xmlns="http://www.w3.org/2000/svg"><path d="m160.5 246.5s-14-3-27 13-22 45-22 45h108s-20-35-25-40-18-17-34-18z" fill="#26a9e0"/><path d="m121.5 303.5s5-24 10-33 3.28-8.07 7.64-8.53 15.13-1.22 23.75 2.66 8.18 3.25 8.18 3.25l13.12-12.15s-12.68-9.66-26.18-9.44-23.5 12.22-26.5 15.22-14.17 23.45-19.09 40.22z" fill="#fff" fill-opacity=".2"/><path d="m145.5 261.5s28 1 38 17 13 26 13 26h-86s13.77-34.15 18.39-38.57 15.61-4.43 16.61-4.43z" fill="none" stroke="#000" stroke-miterlimit="10"/><path d="m121.5 303.5s5-24 10-33 3.28-8.07 7.64-8.53c22.36-1.47 31.93 5.9 31.93 5.9l13.12-12.15s-12.68-9.66-26.18-9.44-23.5 12.22-26.5 15.22-14.17 23.45-19.09 40.22z" fill="#fff" fill-opacity=".2"/><path d="m160.5 246.5s-14-3-27 13-22 45-22 45h108s-20-35-25-40-18-17-34-18z" fill="none" stroke="#000" stroke-miterlimit="10"/><path d="m149 192s1 62 2 64a11.16 11.16 0 0 0 9.06 3.21c5.44-.71 6.44-2.71 6.94-5.21 0 0-2.5-48.5-2.5-62.5z" fill="#6d6e70" stroke="#000" stroke-miterlimit="10"/><path d="m159.5 191.5s3 36 3 40 1 27 1 27l3-1-2-66z" opacity=".2"/><path d="m164.5 203.5a8.76 8.76 0 0 1 -6 2c-4 0-8 0-9-1" fill="none" stroke="#000" stroke-miterlimit="10"/><path d="m165.5 214.5a12.68 12.68 0 0 1 -6 2c-3 0-7 .25-10-1.37" fill="none" stroke="#000" stroke-miterlimit="10"/><path d="m165.8 225.5a10.11 10.11 0 0 1 -6.3 2c-4 0-7.65-.2-9.82-2.1" fill="none" stroke="#000" stroke-miterlimit="10"/><path d="m166 234.5s-.5 3-5.5 3a64.39 64.39 0 0 1 -10.3-1" fill="none" stroke="#000" stroke-miterlimit="10"/><path d="m166.5 245.5s-1 3-6 3a21.51 21.51 0 0 1 -10-2" fill="none" stroke="#000" stroke-miterlimit="10"/><path d="m195.58 301.91h22.42s-15-26.13-19.27-31.77-12.23-13.64-14.23-14.64l-13 12s8 4.69 10.48 8.84 10.68 16.98 13.6 25.57z" fill-opacity=".2"/><path d="m193.5 272.5a6.85 6.85 0 0 0 -2 8c2 5 8 6 8 6s7-6 15-2 9 7 9 15 14 3 14 3l2-2s4-21-19-31c0 0-11-4-27 3z" fill="#6d6e70" stroke="#000" stroke-miterlimit="10"/><path d="m196.5 284.5a25.68 25.68 0 0 1 18-5c11 1 16 9 18 17s-4 10-4 10l-5-7s.05-13.88-10-15.44-14 2.44-14 2.44-4 0-3-2z" fill-opacity=".2"/><g stroke="#000" stroke-miterlimit="10"><path d="m206 268.82a2.89 2.89 0 0 0 -1.5 2.68c0 2 .1 8.87 7 11.94" fill="none"/><path d="m229.44 274.89s-3.94-1.39-5.94 1.61-3.62 9.25-2.81 12.13" fill="none"/><path d="m223.56 300.34c-.06.16.94-2.84 5.94-2.84a21.66 21.66 0 0 1 10.09 2.37" fill="none"/><path d="m127.07 268.36s-18.57-4.86-28.57 11.14c0 0-5 9 1 20s7 4 7 4l7-5.25s-6-7.75-2-13.75c0 0 2.75-4.25 8.88-3.12z" fill="#6d6e70"/><path d="m119.5 281.5s2-7 1-10a5.45 5.45 0 0 0 -3.56-3.62" fill="none"/><path d="m111.5 284.5a14.54 14.54 0 0 0 -8-5c-5-1-5.44.94-5.44.94" fill="none"/><path d="m111 293.56a10.89 10.89 0 0 0 -7.48.94c-4 2-4 5-4 5" fill="none"/></g><path d="m123.53 274.89s-7-2.39-13 .61-9 7-9 12 5 12 7 14 4.83-3.86 4.83-3.86-3.83-5.14-2.83-11.14c0 0 1-6 10-5z" fill-opacity=".2"/><circle cx="145" cy="266" r="1.5"/><circle cx="160.5" cy="268.5" r="1.5"/><circle cx="173.5" cy="274.5" r="1.5"/><circle cx="182.5" cy="285.5" r="1.5"/><circle cx="188.5" cy="296.5" r="1.5"/><circle cx="133.5" cy="266.5" r="1.5"/></svg>