<svg viewBox="0 0 300 300" xmlns="http://www.w3.org/2000/svg"><path d="m125.5 286.5s-5 5-4 15l83 1s-2-19-13-22-16-1.95-16-1.95h-.39l.39 3.95s-4.64 7.17-15.82 7.08-13.57-2.76-15.87-5.92c0 0-1.3-4.45-.8-6.81-.01 0-7.51.65-17.51 9.65z" fill="#26a9e0"/><path d="m143.5 272.5a4.87 4.87 0 0 0 -.19 1.41c0 2.53 1.69 7.59 15.19 7.59 18 0 16-9 16-9s-1-5-13-5-16 1-18 5z" fill="#26a9e0"/><path d="m143.5 282.5s0 6 14 7 18-7 18-7l-1-10s-.12-5-15.56-5-14.44 4-15.44 6a10.07 10.07 0 0 0 -.43 4c.07 2.5.43 5 .43 5z" fill="#26a9e0"/><path d="m166 276 4 3s6-4 4-7-2.41-2.08-2.41-2.08l-.59 4.08z" fill="#020202" fill-opacity=".4"/><path d="m143.5 282.5s0 6 14 7 18-7 18-7l-1-10c-2.8 12.94-32.54 10.72-31 1a24 24 0 0 0 -.43 4c.07 2.5.43 5 .43 5z" fill-opacity=".2"/><path d="m143.5 272.5a4.87 4.87 0 0 0 -.19 1.41c0 2.53 1.69 7.59 15.19 7.59 18 0 16-9 16-9s-1-5-13-5-16 1-18 5z" fill="#fff" fill-opacity=".4" stroke="#000" stroke-miterlimit="10"/><path d="m143.5 282.5s0 6 14 7 18-7 18-7l-1-10s-.12-5-15.56-5-14.44 4-15.44 6a10.07 10.07 0 0 0 -.43 4c.07 2.5.43 5 .43 5z" fill="none" stroke="#000" stroke-miterlimit="10"/><path d="m125.5 286.5s-5 5-4 15l83 1s-2-19-13-22-16-1.95-16-1.95h-.39l.39 3.95s-4.64 7.17-15.82 7.08-13.57-2.76-15.87-5.92c0 0-1.3-4.45-.8-6.81-.01 0-7.51.65-17.51 9.65z" fill="none" stroke="#000" stroke-miterlimit="10"/><path d="m134.5 281.5s5-1 3 2-7 4-9 9a17.55 17.55 0 0 0 -1.2 9.07l-5.8-.07s-1.5-12.91 8.24-18.5a12.58 12.58 0 0 1 4.76-1.5z" fill="#fff" fill-opacity=".4"/><path d="m168.21 288.58s15.29-5.08 20.29-1.08 5 12 5 14 11 0 11 0-2.7-17.32-10.85-20.16a50.64 50.64 0 0 0 -18.15-2.84v4s-5.58 6.17-7.29 6.08z" fill-opacity=".4"/><path d="m170.33 279.34v7.9s5.17-3.74 5.17-4.74-.94-9.36-.94-9.36.6 4.03-4.23 6.2z" fill-opacity=".4"/><path d="m143 201s8 21 7 38-2 35-2 35 .5 3.5 10.5 3.5 13-5 13-5 0-37-3-53-8-22-8-22-13 3-17.5 3.5z" fill="#6d6e70" stroke="#000" stroke-miterlimit="10"/><path d="m153.89 199s6.61 15.53 8.61 28.53 4 24 4 33v15.63s5-1.63 5-3.63 1.23-37.53-5.39-62.77c0 0-3.61-10.23-5.61-12.23z" fill-opacity=".2"/><g stroke="#000" stroke-miterlimit="10"><path d="m150 226.5s14.89 2.35 18.24-8.32" fill="none"/><path d="m150.5 237.5s1 4 8 3 11-4 12-6" fill="none"/><path d="m149.63 250.63s.88 3.88 6.88 3.88 13.49-3.51 14.73-5.77" fill="none"/><path d="m147.5 213.5s1 2 6 2 12.85-4.58 12.43-6.29" fill="none"/><path d="m149 262.5s0 5 8.18 4 12.77-3.62 14.06-6.31" fill="none"/></g></svg>