<svg viewBox="0 0 300 300" xmlns="http://www.w3.org/2000/svg"><path d="m106 247.52s-34.47 3-50.47 32c0 0-5 9-6 23h27s.9-29.98 29.47-55z" fill="#26a9e0"/><path d="m226.5 236.5s-6-10-26-12-56-2-81 13-43 44-43 65h115s3-31 22-53c0 0 8.88-7.45 14.44-9.22 0 0 .56-.78-1.44-3.78z" fill="#26a9e0"/><path d="m286.5 302.5s4-50-16-59-44-8-57 6-22 43-22 53z" fill="#26a9e0"/><path d="m91.18 264s5.32.48 3.32 9.48-5 7-7 17-2.5 12-2.5 12h-8.5s-.65-16.94 14.68-38.48z" fill="#fff" fill-opacity=".4"/><path d="m286.5 302.5s4-50-16-59-44-8-57 6-22 43-22 53z" fill="none" stroke="#000" stroke-miterlimit="10" stroke-width="1.2"/><path d="m268.5 247.5s-8 8-11 26-2.25 29-2.25 29h31.25s3.84-41.79-12.58-56.9c0 0-2.42-1.1-5.42 1.9z" fill-opacity=".2" stroke="#000" stroke-miterlimit="10"/><path d="m226.5 236.5s-6-10-26-12-56-2-81 13-43 44-43 65h115s3-31 22-53c0 0 8.88-7.45 14.44-9.22 0 0 .56-.78-1.44-3.78z" fill="none" stroke="#000" stroke-miterlimit="10" stroke-width="1.25"/><path d="m218.22 229.55s-18.72.95-31.72 20.95-17 37-17.5 52h22.5c-1.42.12 8.08-36.84 16-45.5 10-15.5 21-16.5 21-16.5s.43-4.9-10.28-10.95z" fill-opacity=".2" stroke="#000" stroke-miterlimit="10" stroke-width=".75"/><path d="m106 247.52s-34.47 3-50.47 32c0 0-5 9-6 23h27s.9-29.98 29.47-55z" fill="none" stroke="#000" stroke-miterlimit="10"/><path d="m80.61 255.48s2.89 2-6.11 12a94 94 0 0 0 -17 26c-3 7-1.75 9-1.75 9h-6.25s1.23-32.01 31.11-47z" fill="#fff" fill-opacity=".4"/><g stroke="#000" stroke-miterlimit="10"><path d="m106 247.52s-34.47 3-50.47 32c0 0-5 9-6 23h27s.9-29.98 29.47-55z" fill="none" stroke-width="1.2"/><path d="m153.5 251.5c7.6-.12 26-2 27-14s-27-8-27-8-22 1-22 11 15.85 11.1 22 11z" fill="none"/><path d="m138.5 166.5s12 33 4 72c0 0 1 6 12 5s12-5 12-5 6-37-10-75c0 0-11 3-18 3z" fill="#6d6e70"/><path d="m161 176a15.59 15.59 0 0 1 -7.53 3.51c-5 1-9 1-11.52 0" fill="none"/><path d="m163.66 185.38c-1.18 2.51-2.36 7.71-20 5.42" fill="none"/><path d="m166.32 200.74s-4.63 7.77-21.23 3.27" fill="none"/><path d="m167.42 213.41s-3.73 9.13-22.33 4.11" fill="none"/><path d="m167.42 227.17s-7.75 9.36-23.34 1.85" fill="none"/></g><circle cx="154.5" cy="247.5" r="1.5"/><circle cx="166.5" cy="244.5" r="1.5"/><circle cx="174.5" cy="237.5" r="1.5"/><circle cx="168.5" cy="232.5" r="1.5"/><circle cx="142.5" cy="245.5" r="1.5"/><circle cx="137.5" cy="240.5" r="1.5"/><path d="m150.5 164.5s10.5 29.5 11 45a328.75 328.75 0 0 1 -1 33l6-3c3.29-1.87.5-61.5-10-76z" fill-opacity=".2"/></svg>