<svg viewBox="0 0 300 300" xmlns="http://www.w3.org/2000/svg"><g fill="#26a9e0"><path d="m222.5 301.5s-10-35 11-53 58-15 70 2 2 51 2 51z"/><path d="m83.5 254.5s-6 28 67 26 77-30 76-36-12.3-10.12-26-13c0 5 1 22 1 22s-8 13-46 17c-29 1-45-9-45-9s-1.5-16-2.5-23.13c-11.5 3.38-22.5 9.13-24.5 16.13z"/><path d="m110.5 261.5s20 11 44 9 36-7 47-17l-1-24a10.53 10.53 0 0 1 -.31 4.41c-.69 1.59-4.63 16.78-42.16 19.68s-47-4.1-50-16.1z"/><path d="m83.5 250h143.5v58.5h-143.5z"/><path d="m87.5 247.5s-19-10-37-5-29 20-32 37c-1 11 1 16 3 20h64s2-5 0-16-3-23-2-29 4-7 4-7z"/><path d="m108 237s-1 20 45 17 48.5-20.5 47.5-24.5c-.91-3.63-13.68-10.56-39-9.56 0 .56.26 3.3.26 3.3 1.74 9.26.74 15.26-9.26 16.26-3.41.33-10-5-10-5s-1-8-1-13c-21.12 3.09-33.09 8.5-33.5 15.5z"/></g><path d="m108 237s-1 20 45 17 48.5-20.5 47.5-24.5c-.91-3.63-13.68-10.56-39-9.56 0 .56.26 3.3.26 3.3 1.74 9.26.74 15.26-9.26 16.26-3.41.33-10-5-10-5s-1-8-1-13c-21.12 3.09-33.09 8.5-33.5 15.5z" fill-opacity=".6" stroke="#000" stroke-miterlimit="10"/><path d="m110.5 261.5s20 11 44 9 36-7 47-17l-1-24a10.53 10.53 0 0 1 -.31 4.41c-.69 1.59-4.63 16.78-42.16 19.68s-47-4.1-50-16.1z" fill="none" stroke="#000" stroke-linecap="round" stroke-linejoin="round"/><path d="m193.37 260.15c-6.66 3.83-18.28 8.29-37.87 10.35-29 1-45-9-45-9s-1.5-16-2.5-23.13c-11.5 3.38-22.5 9.13-24.5 16.13 0 0-6 28 67 26 29.58-.81 47.84-5.89 59-12" fill="#fff" fill-opacity=".2"/><path d="m83.5 254.5s-6 28 67 26c29.58-.81 47.84-5.89 59-12-5.5-2.5-10.5-5.5-16.13-8.35-6.66 3.83-18.28 8.29-37.87 10.35-29 1-45-9-45-9s-1.5-16-2.5-23.13c-11.5 3.38-22.5 9.13-24.5 16.13z" fill="#fff" fill-opacity=".1"/><path d="m141.5 190.5v29a142.25 142.25 0 0 0 1 15 9.78 9.78 0 0 0 10 5c7-1 11-4 10-11-.36-2.54-.73-5-1-7.56a138.9 138.9 0 0 1 -1-17.44v-14a69.37 69.37 0 0 0 -19 1z" fill="#6d6e70" stroke="#000" stroke-miterlimit="10"/><path d="m152.5 190.5s0 7 2 12a55.9 55.9 0 0 1 3.13 17.34c-.12 3.66.88 15.66-3.12 17.66s-2 2-2 2 7-1.57 8.48-3.79 1.94-3.24 1.23-9.23a177.33 177.33 0 0 1 -1.71-24.86v-12.12a37.46 37.46 0 0 0 -6.17-.25l-1.83.25z" fill="#58595b"/><path d="m141.5 190.5v29a142.25 142.25 0 0 0 1 15 9.78 9.78 0 0 0 10 5c7-1 11-4 10-11-.36-2.54-.73-5-1-7.56a138.9 138.9 0 0 1 -1-17.44v-14a69.37 69.37 0 0 0 -19 1z" fill="none" stroke="#000" stroke-miterlimit="10"/><path d="m161.25 222.25s-2.67 3.25-9.51 3.25-10.13-2-10.13-2" fill="none" stroke="#000" stroke-linecap="round" stroke-linejoin="round"/><path d="m160 208.5s-3 3-9.06 3-8.94-1.5-8.94-1.5" fill="none" stroke="#000" stroke-linecap="round" stroke-linejoin="round"/><path d="m160 197.5s-2 2-8.06 2a86.48 86.48 0 0 1 -9.94-.5" fill="none" stroke="#000" stroke-linecap="round" stroke-linejoin="round"/><path d="m188 246.51 1.52 15.49s6.63-4 9.06-6l2.42-2s.72.24.36-3.88-.79-17.93-.79-17.93-.57 7.81-12.57 14.32z" fill-opacity=".4"/><path d="m84 273.63s13 3.37 13 11.37-1 9 0 14 0 4 0 4h-13s3.32-3 2.41-11.26-1.41-12.24-1.41-12.24z" fill="#fff" fill-opacity=".5"/><path d="m87.5 247.5s-19-10-37-5-29 20-32 37c-1 11 1 16 3 20h64s2-5 0-16-3-23-2-29 4-7 4-7z" fill="none" stroke="#000" stroke-miterlimit="10"/><path d="m87.5 247.5a63.65 63.65 0 0 0 -25.06-6.39c7.06 2.39 3.06 8.39-8.94 13.39-11 6-23 10-27.5 32.5-.67 7.37.84 13.18 1.5 14.5l58-2s2-5 0-16-3-23-2-29 4-7 4-7z" fill-opacity=".4"/><path d="m33.5 299.5s-7-19-3-35a28.63 28.63 0 0 1 17-21.06" fill="none" stroke="#000" stroke-miterlimit="10" stroke-width=".75"/><path d="m62.44 241.12a3.46 3.46 0 0 1 3.06 3.38c0 3 0 4-10 9s-21.45 10-26.22 21-2.62 25-2.62 25h-5.16l-3-20s8.88-37.77 43.94-38.38z" fill="#fff" fill-opacity=".2"/><path d="m84.26 275.62a31.64 31.64 0 0 1 -3.76 14.88 19.71 19.71 0 0 1 -11.14 8.83l16.14.17s1.42-2.62.71-10.81a90.57 90.57 0 0 0 -1.95-13.07z" fill-opacity=".4"/><path d="m222.5 301.5s-10-35 11-53 58-15 70 2 2 51 2 51z" fill-opacity=".4" stroke="#000" stroke-miterlimit="10"/><path d="m292.5 241.5s-12-1-13 15c-1 14 4 41 7 45" fill="none" stroke="#000" stroke-linecap="round" stroke-linejoin="round" stroke-width=".75"/><path d="m226.5 244.5.74 11a39.65 39.65 0 0 0 -7.12 24.19c.38 14.81 2.38 21.81 2.38 21.81h-12s1-9 .5-14.5-1.49-18.55-1.49-18.55 17.99-8.95 16.99-23.95z" fill-opacity=".4"/><path d="m209.51 268.45s18-9 17-24l.74 11a39.65 39.65 0 0 0 -7.12 24.19c.38 14.81 2.38 21.81 2.38 21.81h-12" fill="none" stroke="#000" stroke-miterlimit="10"/><path d="m293.9 242.19c-1.9-1.19 6.6 6.31 7.6 15.31s7.11 6.39 7.11 6.39-.11-8.39-5.11-13.39-7.69-7.12-9.6-8.31z" fill-opacity=".4"/><circle cx="154" cy="262" r="1.5"/><circle cx="170.5" cy="259.5" r="1.5"/><circle cx="183.5" cy="255.5" r="1.5"/><circle cx="194.5" cy="250.5" r="1.5"/><circle cx="138.5" cy="261.5" r="1.5"/><circle cx="125.5" cy="259.5" r="1.5"/><circle cx="115.5" cy="255.5" r="1.5"/><path d="m83.5 254.5s-6 28 67 26 77-30 76-36-12.3-10.12-26-13c0 5 1 22 1 22s-8 13-46 17c-29 1-45-9-45-9s-1.5-16-2.5-23.13c-11.5 3.38-22.5 9.13-24.5 16.13z" fill="none" stroke="#000" stroke-miterlimit="10"/></svg>