<svg viewBox="0 0 300 300" xmlns="http://www.w3.org/2000/svg"><g fill="#26a9e0"><path d="m158.5 234.5s-59 1-84 42 23 42 23 42l132-13s-5-16 5-27 19-6 19-6-34-41-95-38z"/><path d="m277.5 301.5c-.33-7.3-4.07-15.56-12-25 0 0-11.5-7.5-25.28-2.69-7.72 4.69-13.72 11.69-11.72 28.69z"/><path d="m74.5 276.5a29.05 29.05 0 0 0 -26 16c-9 17 10 17 10 17l8.79-9.5s-2.79-6.5 7.21-23.5z"/></g><path d="m158.5 234.5s-59 1-84 42 23 42 23 42l132-13s-5-16 5-27 19-7 19-7-34-40-95-37z" fill="none" stroke="#000" stroke-linecap="round" stroke-linejoin="round"/><path d="m215 245s6.5 1.46-.5 16.46-13 26-10 41 24.32 0 24.32 0-3.6-15.79 7-25.4c12.91-11.65 19.71-3.56 16.64-5.6.04.04-16.97-17.88-37.46-26.46z" fill-opacity=".2"/><path d="m158.5 234.5s-59 1-84 42 23 42 23 42l132-13s-5-16 5-27c7-9 19-7 19-7s-34-40-95-37z" fill="none" stroke="#000" stroke-linecap="round" stroke-linejoin="round"/><path d="m62.5 280.5s5 0 0 9-8 11-9 14-6.5-2.33-6.5-2.33-3.23-4.81 5.63-14.74c0 0 4.87-5.93 9.87-5.93z" fill="#fff" fill-opacity=".4"/><path d="m74.5 276.5a29.05 29.05 0 0 0 -26 16c-9 17 10 17 10 17l8.79-9.5s-2.79-6.5 7.21-23.5z" fill="none" stroke="#000" stroke-miterlimit="10"/><path d="m77.5 301.5s0-19 13-30 16-5 15-2-14 24-14 32-14 0-14 0z" fill="#fff" fill-opacity=".4"/><path d="m277.5 301.5s-5-39-37.28-27.69c-7.72 4.69-13.72 11.69-11.72 28.69z" fill="none" stroke="#000" stroke-miterlimit="10"/><path d="m261.5 304.5s4-7 3-15-8.36-16.57-8.36-16.57a25.86 25.86 0 0 1 18.77 16.29 27.17 27.17 0 0 1 2.58 15.29z" fill-opacity=".2"/><path d="m103.5 303.5s2-30 41-29 41 29 41 29h-11.25c-.75-2-12.12-18.58-30.75-18-15.88-.37-26.93 4.64-30.5 18z" fill="#fff" fill-opacity=".2" stroke="#000" stroke-miterlimit="10"/><path d="m113.5 301.5s3-16 28-16 32 17 32 17z" fill-opacity=".2" stroke="#000" stroke-miterlimit="10"/><path d="m118.5 300.5s9-12 24-11 24 12 24 12z" fill="#f9ec31" stroke="#000" stroke-miterlimit="10"/><circle cx="125.5" cy="283.5" r="1"/><circle cx="113" cy="291" r="1"/><circle cx="148" cy="280" r="1"/><circle cx="170" cy="289" r="1"/><path d="m147 200s0 44 1 45a14.41 14.41 0 0 0 14 4c8-2 7-7 7-7a144.32 144.32 0 0 1 -2.5-24.5v-19s-18 0-19.5 1.5z" fill="#6d6e70" stroke="#000" stroke-miterlimit="10"/><path d="m159.5 202.5s1 17 2 23 2 22.83-2 23.91c0 0 9.62-.9 9.31-8.41s-2.43-19.17-2.37-30.34.06-12.17.06-12.17l-7 .11z" fill-opacity=".2"/><path d="m147 233.5s1.08 3 5.4 3 12.83-1.33 15-4.66" fill="none" stroke="#000" stroke-miterlimit="10"/><path d="m147.5 219.32s1 2.68 5 2.68 11.89-1.18 13.94-4.16" fill="none" stroke="#000" stroke-miterlimit="10"/><path d="m147.5 208.07s1 1.93 5 1.93 11.89-.85 13.94-3" fill="none" stroke="#000" stroke-miterlimit="10"/></svg>