<svg viewBox="0 0 300 300" xmlns="http://www.w3.org/2000/svg"><path d="m127.5 124.5s-43-1-45 16c-1.5 15.5 25 13 25 13h35s27 0 27-13-11-17-42-16z" fill="#26a9e0"/><g stroke="#000" stroke-linecap="round" stroke-linejoin="round"><path d="m127.5 124.5s-43-1-45 16c-1 15 21 13 25 13h35s27 0 27-13-11-17-42-16z" fill="none" stroke-width=".75"/><path d="m126 132c-15.5.5-28.5-1.5-30.5 6.5-2 9 16 7 22 7s27-1 30-1 10-1 10-3c0-8-15-10-31.5-9.5z" fill="#461917" stroke-width=".5"/><path d="m90.5 140.5c0 1-5 9 32 8s35-4.33 35-7.67-8.64-9.23-21.32-8.78-40.68-3.55-45.68 8.45z" fill-opacity=".4" stroke-width=".75"/></g><ellipse cx="112" cy="139" fill="#fff100" rx="2.5" ry="3.5"/><ellipse cx="138" cy="139" fill="#fff100" rx="2.5" ry="3.5"/><path d="m93.5 129.5s27-3 41-2c11 0 24 3 29 10s1.39 10.59-.3 11.8 6.3-2.8 6.3-8.8-1.61-11.29-14.3-14.65-30.2-1.18-33.95-1.26-22.75 1.91-27.75 4.91z" style="stroke:#000;stroke-linecap:round;stroke-linejoin:round;stroke-width:.75;fill:#fff;fill-opacity:.2"/></svg>