<svg viewBox="0 0 300 300" xmlns="http://www.w3.org/2000/svg"><path d="m110 135s-1.5 6.5.5 6.5h45v-6s0-2-3-2h-38c-3 0-4 0-4.5 1.5z" fill="#26a9e0"/><g stroke="#000"><path d="m110 135s-1.5 6.5.5 6.5h45v-6s0-2-3-2h-38c-3 0-4 0-4.5 1.5z" fill-opacity=".4" stroke-miterlimit="10"/><path d="m110.83 133.88a25.17 25.17 0 0 0 2.67 4.62c1 1 5 0 9 0h31s2-.12 2 .94v-3.94s0-2-3-2h-39.19z" fill="#461917" stroke-linecap="round" stroke-linejoin="round" stroke-width=".5"/><path d="m113.5 138.5-3.6 2.71" fill="#461917" stroke-linecap="round" stroke-linejoin="round" stroke-width=".75"/></g></svg>