<svg viewBox="0 0 300 300" xmlns="http://www.w3.org/2000/svg"><path d="m129.5 123.5s-30 3-31 15 8 13 15 14 20-2 26-3 25 1 27-13-17-14-17-14z" fill="#26a9e0"/><g fill="#fff"><path d="m116.92 125.8s-15.42 2.7-16.42 12.7 15.5 13 24.25 10.5a97.37 97.37 0 0 1 25.25-3.56c6.5.06 16.78-3.69 16.64-11.31s-9.14-11.63-17.14-11.63-21.12 1.13-21.12 1.13z" fill-opacity=".4"/><path d="m130.5 123.5-8 25.5c1.6-.06 5.38-.65 9-1.2l7-24.8a47.26 47.26 0 0 1 -8 .5z" fill-opacity=".4"/><path d="m120.77 124.91-7.77 25.09h5l7.41-25.94z" fill-opacity=".4"/></g><path d="m129.5 123.5s-30 3-31 15 8 13 15 14 20-2 26-3 25 1 27-13-17-14-17-14z" fill="none" stroke="#000" stroke-linecap="round" stroke-linejoin="round"/><path d="m106.61 129.46s-6.11 3-6.11 9 5 13 20 11 23-4 28-4 17.29-2.5 18.15-10.25c0 0 .3 10.92-14.42 13.09s-16.25 1.2-21 2.68-28.06 4.23-32.4-7.15c.01.04-3.12-9.4 7.78-14.37z" fill-opacity=".4" stroke="#000" stroke-linecap="round" stroke-linejoin="round" stroke-width=".75"/></svg>