<svg viewBox="0 0 300 300" xmlns="http://www.w3.org/2000/svg"><path d="m131.5 119.5c-5 0-19 2-19 16 0 15 10 18 18 18s17-7 16-19-10-15-15-15z" fill="#26a9e0"/><g stroke="#000"><path d="m131.5 119.5c-5 0-19 2-19 16 0 15 10 18 18 18s17-7 16-19-10-15-15-15z" fill-opacity=".4" stroke-miterlimit="10" stroke-width=".75"/><path d="m132 124h-.5c-2.51 0-13.61.38-14.5 11-1 12 8.5 13.5 12.5 13.5s13-3 13-13c0-11-10.5-11.5-10.5-11.5z" fill-opacity=".4" stroke-miterlimit="10" stroke-width=".75"/><path d="m130.5 124.5s-10 1-10 10 5 11 11 11a11.1 11.1 0 0 0 11-11c0-6-6-10-12-10z" fill="#461917" stroke-linecap="round" stroke-linejoin="round" stroke-width=".5"/></g><ellipse cx="131.5" cy="134.5" fill="#ec1c24" rx="2" ry="3"/><path d="m147.5 133.5h6s1 0 0 1a7.69 7.69 0 0 1 -3 2h-4v-2z" fill="#461917" stroke="#000" stroke-linecap="round" stroke-linejoin="round" stroke-width=".75"/><path d="m112.49 135.15a29.28 29.28 0 0 1 -3.29.35c-1.1 0-1.7 1-2.2 2a.79.79 0 0 0 .2.57 1.56 1.56 0 0 0 .94.36 18.66 18.66 0 0 0 2.15.07c2.2 0 2.32-.35 2.32-.35z" fill="#461917" stroke="#000" stroke-linecap="round" stroke-linejoin="round" stroke-width=".75"/></svg>