<svg viewBox="0 0 300 300" xmlns="http://www.w3.org/2000/svg"><path d="m99.5 142.5s0-10 12-14 26-4 26-4 20-1 25 2 5 9 5 11-2 11-19 13-33 3-33 3-16 0-16-11z" fill="#26a9e0"/><g stroke="#000"><path d="m99.5 142.5s0-10 12-14 26-4 26-4 20-1 25 2 5 9 5 11-2 11-19 13-33 3-33 3-16 0-16-11z" fill-opacity=".6" stroke-linecap="round" stroke-linejoin="round"/><path d="m107.16 130.47s-2.16 2.53-2.16 7.53 2 9 8 10 20.5-1.5 20.5-1.5 11-2 18-2 15.74-2.78 15.87-5.89-.17-7.11-2.52-10.11-7.12-3.56-10.24-3.78-12.52-.54-14.82-.38-10.17.47-12.23.81-7.31 1.1-7.31 1.1l-7.61 1.87s-4.81 1.32-5.48 2.35z" fill="#461917" stroke-linecap="round" stroke-linejoin="round" stroke-width=".5"/><path d="m109 135s-1 11 10 10 10-10 10-10 0-6-3-8-2.85-1.25-2.85-1.25-11.28 2.64-12.21 2.94-1.94 4.31-1.94 6.31z" fill="#f9ec31" stroke-linecap="round" stroke-linejoin="round" stroke-width=".5"/><path d="m142 125s-3 2-3 7 3.5 10.5 9.5 10.5 12-4 12-10-3.66-7.5-3.66-7.5l-4.78-.47-4.22-.16h-3.44l-1.91.13z" fill="#f9ec31" stroke-miterlimit="10" stroke-width=".5"/></g><path d="m119.42 133s-1.17 0-1.17 2.5 1.17 2.5 1.17 2.5a2.51 2.51 0 0 0 0-5z"/><path d="m150.08 130a1.8 1.8 0 0 0 -1.82 1.94c-.07 2 .78 3 1.65 3.06s1.78-.94 1.85-2.94a1.8 1.8 0 0 0 -1.68-2.06"/><path d="m99.5 142.5s0-10 12-14 26-4 26-4 20-1 25 2 5 9 5 11-2 11-19 13-33 3-33 3-16 0-16-11z" fill="none" stroke="#000" stroke-linecap="round" stroke-linejoin="round"/></svg>