<svg viewBox="0 0 300 300" xmlns="http://www.w3.org/2000/svg"><path d="m144.5 141.5s5 9 9 7 13-9 13-9v-9s-2-1-7 0-14 5-14 5-3 2-1 6z" fill="#26a9e0"/><path d="m118 141-5 10s-7.5-2.5-10.5-4.5-4-3-4-6l1-3a13.6 13.6 0 0 1 7 0c4 1 11 2 11 2s1 0 .5 1.5z" fill="#26a9e0"/><g stroke="#000" stroke-linecap="round" stroke-linejoin="round"><path d="m144.5 141.5s5 9 9 7 13-9 13-9v-9s-2-1-7 0-14 5-14 5-3 2-1 6z" fill-opacity=".4"/><path d="m144.5 139.5s2 2 6 1 10-6 12-7a18.66 18.66 0 0 0 4-3s-3.22-1-9.11.52a67.92 67.92 0 0 0 -11.89 4.48s-3 2-1 4z" fill="#461917" stroke-width=".5"/><path d="m118 141-5 10s-7.5-2.5-10.5-4.5-4-3-4-6l1-3a13.6 13.6 0 0 1 7 0 37.46 37.46 0 0 0 8 1s4 1 3.5 2.5z" fill-opacity=".4"/><path d="m100.5 139.5 6 3c2 1 9.7 2.6 11.35-1.2s-11.6-4.69-16-4.24c0 0-3-.17-2.67.94a2.3 2.3 0 0 0 1.32 1.5z" fill="#461917" stroke-width=".5"/></g></svg>