<svg viewBox="0 0 300 300" xmlns="http://www.w3.org/2000/svg"><path d="m112.71 130h-.49c-2.46 0-13.35.38-14.22 11-1 12 8.33 13.5 12.26 13.5s12.75-3 12.75-13c-.01-11-10.3-11.5-10.3-11.5z" fill="#26a9e0"/><path d="m156.71 130h-.49c-2.46 0-13.35.38-14.22 11-1 12 8.33 13.5 12.26 13.5s12.75-3 12.75-13c-.01-11-10.3-11.5-10.3-11.5z" fill="#26a9e0"/><path d="m112.71 130h-.49c-2.46 0-13.35.38-14.22 11-1 12 8.33 13.5 12.26 13.5s12.75-3 12.75-13c-.01-11-10.3-11.5-10.3-11.5z" fill-opacity=".55" stroke="#000" stroke-miterlimit="10" stroke-width=".75"/><path d="m111.23 130.5s-9.8 1-9.8 10 4.9 11 10.78 11a11 11 0 0 0 10.78-11c.01-6-5.87-10-11.76-10z" fill="#461917" stroke="#000" stroke-linecap="round" stroke-linejoin="round" stroke-width=".5"/><ellipse cx="112.22" cy="140.5" fill="#ec1c24" rx="1.96" ry="3"/><path d="m156.71 130h-.49c-2.46 0-13.35.38-14.22 11-1 12 8.33 13.5 12.26 13.5s12.75-3 12.75-13c-.01-11-10.3-11.5-10.3-11.5z" fill-opacity=".55" stroke="#000" stroke-miterlimit="10" stroke-width=".75"/><path d="m155.23 130.5s-9.8 1-9.8 10 4.9 11 10.78 11a11 11 0 0 0 10.78-11c.01-6-5.87-10-11.76-10z" fill="#461917" stroke="#000" stroke-linecap="round" stroke-linejoin="round" stroke-width=".5"/><ellipse cx="156.22" cy="140.5" fill="#ec1c24" rx="1.96" ry="3"/></svg>