<svg viewBox="0 0 300 300" xmlns="http://www.w3.org/2000/svg"><path d="m122.5 94.5s4 3 13 3 16-6 16-6a26.39 26.39 0 0 0 -1-7c-1-3-10.49-2.87-15.74-1.93s-11.26.93-12.26 3.93z" fill="#26a9e0"/><ellipse cx="133" cy="26" fill="#be1e2d" rx="7.5" ry="6.5" stroke="#000" stroke-miterlimit="10"/><path d="m140 25c.19.68-5.51 8.12-11.57 6.27a8.65 8.65 0 0 0 7.91.53c4.66-1.8 3.66-6.8 3.66-6.8z" fill="#561317"/><ellipse cx="130.22" cy="22.93" fill="#ed293b" rx="4.46" ry="2.23" transform="matrix(.87 -.5 .5 .87 5.98 68.18)"/><g stroke="#000"><ellipse cx="133" cy="26" fill="none" rx="7.5" ry="6.5" stroke-miterlimit="10" stroke-width=".75"/><path d="m135.5 82.5s-13 1-13 4 9 4 13 4 15-2 15-6-15-2-15-2z" fill="#fff" fill-opacity=".2" stroke-linecap="round" stroke-linejoin="round" stroke-width=".75"/><path d="m122.5 94.5s4 3 13 3 16-6 16-6a26.39 26.39 0 0 0 -1-7c-1-3-10.49-2.87-15.74-1.93s-11.26.93-12.26 3.93z" fill="none" stroke-linecap="round" stroke-linejoin="round"/></g><path d="m148.19 93.77c.31-1.27-.69-6.27-.69-6.27s-7.41-2.59-8.2-2.3 1.86-.8 2-1.75.23-1.43.23-1.43 3.12 0 5.53.25 3.41 1.47 3.41 2.35l.64 2.58.36 4.29-3 2" fill-opacity=".2"/><path d="m133 29.24s-7.5 13.21-6.5 28.88a245.78 245.78 0 0 0 3 26.43s0 2 4 2a14 14 0 0 0 7-2 3.4 3.4 0 0 0 1-2c0-1-11-18.6-8-48.94 0 .03 1-5.84-.5-4.37z" fill="#e6e7e8" stroke="#000" stroke-miterlimit="10"/><path d="m130.5 46.5a94.41 94.41 0 0 0 2 18 145.29 145.29 0 0 0 6 19l.52 1.8s2.48-.8 2.48-2.8c0 0-6.45-14.41-7.23-22.71s-1.77-20.29-.77-26.29c0 0-.08-3.33.21-2.91s-3.71 7.41-3.21 15.91z" fill="#d0d2d3"/><path d="m133 29.24s-7.5 13.21-6.5 28.88a245.78 245.78 0 0 0 3 26.43s0 2 4 2a14 14 0 0 0 7-2 3.4 3.4 0 0 0 1-2c0-1-11-18.6-8-48.94 0 .03 1-5.84-.5-4.37z" fill="none" stroke="#000" stroke-miterlimit="10"/><path d="m126 46s-9 1-9 6 10 5 13 5 12-1 12-6-8-5-8-5" fill="none" stroke="#000" stroke-linecap="round" stroke-linejoin="round"/></svg>