<svg viewBox="0 0 300 300" xmlns="http://www.w3.org/2000/svg"><path d="m135 83s-13 2-13 5a54.33 54.33 0 0 0 .5 6.5s4 4 13 3a37.83 37.83 0 0 0 16-6v-5l-3-4s-5-1-13.5.5z" fill="#26a9e0"/><path d="m135 83s-13 2-13 5a54.33 54.33 0 0 0 .5 6.5s4 4 13 3a37.83 37.83 0 0 0 16-6v-5l-3-4s-5-1-13.5.5z" fill="none" stroke="#000" stroke-miterlimit="10"/><path d="m123.5 88.5s2 3 10 2 14-3 15-5 1.19-2.37-1.41-3.18-13.22.86-16.41 1.52-8.18 1.66-7.18 4.66z" fill="#fff" fill-opacity=".2" stroke="#000" stroke-miterlimit="10"/><path d="m123.5 88.5s2 3 10 2a47.41 47.41 0 0 0 11.86-2.78c-.38.16-4.11-2.4-4.11-2.4s1.43-3.14 2-3.18a105.65 105.65 0 0 0 -12.56 1.69c-3.19.67-8.19 1.67-7.19 4.67z" fill="#fff" fill-opacity=".2"/><g stroke="#000" stroke-miterlimit="10"><path d="m139.5 66.5s-4-16 3-27c0 0-2-7-6-3 0 0-4 3-5 15a66 66 0 0 0 2 22s5 0 6-7z" fill="#716558"/><path d="m119.5 36.5s1 13 3 19 4 11 6 16 5 7 6 5 0-3-2-10-5-18-5-25v-7a10.34 10.34 0 0 0 -4-1c-2 0-4 1-4 3z" fill="#9a8479"/><path d="m110.5 50.5s8 8 10 13 5 13 6 10-3-18-6-22a61.22 61.22 0 0 0 -5-6s-5 0-5 5z" fill="#716558"/><path d="m136.5 86.5s-5-19-19-28-20-7-20-7-4 3 1 6 12 5 18 10 12 14 12 16 3 5 8 3z" fill="#c1b49a"/><path d="m134.5 73.5s6-25 16-32 9 2 9 2v4s-4-2-8 5-9 19-9 23v8s-4 5-6 3c0 0-3.24-7.59-3.12-8.3s1.12-4.7 1.12-4.7z" fill="#c1b49a"/></g><path d="m144.36 88.12v7.11l7.14-3.73.07-4.64-1.57-2.86a11.59 11.59 0 0 1 -5.64 4.12z" fill-opacity=".2"/></svg>