<svg viewBox="0 0 300 300" xmlns="http://www.w3.org/2000/svg"><path d="m128.5 86.5a3.49 3.49 0 0 0 -1 2v3s3 3 9 3 12-4 12-4v-5s-1-1-6-1-11 0-14 2z" fill="#26a9e0"/><path d="m173.5 21.5-35 17s-.57 2.41.22 3.71l.78 1.29 37-18s2-5-3-4z" fill="#26a9e0"/><path d="m96.5 58.5s-2 2-1 3 3 0 3 0l33.66-15.9a6.44 6.44 0 0 1 -.66-3.1z" fill="#26a9e0"/><path d="m134.5 47.5-1 37a4.33 4.33 0 0 0 4 2 7.65 7.65 0 0 0 5-2l-2-40s-5 0-6 3z" fill="#26a9e0"/><path d="m136.5 38.5-4 2a3.76 3.76 0 0 0 -.81 1.55 5.34 5.34 0 0 0 -.19 1.45c0 2 2 4 3 4 0 0-.17-.54 1.42-1.77a8.26 8.26 0 0 1 4.32-1.22h.26s-2-2-2-3v-3z" fill="#26a9e0"/><g stroke="#000"><path d="m134.5 47.5-1 37a4.33 4.33 0 0 0 4 2 7.65 7.65 0 0 0 5-2l-2-40s-5 0-6 3z" fill="none" stroke-linecap="round" stroke-linejoin="round"/><path d="m128.5 87.5s0 2 6 2 11-1 13-3c.48-.55.5-1.75-2.25-1.87-1 0-3.15 0-3.15 0a6.77 6.77 0 0 1 -4.1 1.8c-3.5.1-4.31-1.6-4.31-1.6s-5.19.67-5.19 2.67z" fill="#fff" fill-opacity=".2" stroke-linecap="round" stroke-linejoin="round" stroke-width=".75"/><path d="m128.5 86.5a3.49 3.49 0 0 0 -1 2v3s3 3 9 3 12-4 12-4v-5s-.8-1-5.8-1a7.15 7.15 0 0 1 -4.57 2c-1.63 0-4.17 0-4.63-1.72a10.71 10.71 0 0 0 -5 1.72z" fill="none" stroke-linecap="round" stroke-linejoin="round"/><path d="m128.5 86.5a3.49 3.49 0 0 0 -1 2v3s3 3 9 3 12-4 12-4v-5c-.63-.65-1.9-1.15-6-1a6.16 6.16 0 0 1 -4.17 1.8c-3.83.2-4.41-1.46-4.41-1.46s-4.42.66-5.42 1.66z" fill="none" stroke-linecap="round" stroke-linejoin="round" stroke-width=".75"/><path d="m136.5 38.5-4 2a3.76 3.76 0 0 0 -.81 1.55 5.34 5.34 0 0 0 -.19 1.45c0 2 2 4 3 4 0 0-.17-.54 1.42-1.77a8.26 8.26 0 0 1 4.32-1.22h.26s-2-2-2-3v-3z" fill="none" stroke-linecap="round" stroke-linejoin="round"/><path d="m96.5 58.5s-2 2-1 3 3 0 3 0l33.8-15.6a7.45 7.45 0 0 1 -.8-3.4z" fill="#fff" fill-opacity=".2" stroke-linecap="round" stroke-linejoin="round"/><path d="m173.5 21.5-35 17s-.57 2.41.22 3.71l.78 1.29 37-18c1.02.02 2.99-4.97-3-4z" fill="#fff" fill-opacity=".2" stroke-linecap="round" stroke-linejoin="round"/><circle cx="175.5" cy="23.5" fill-opacity=".2" r="2" stroke-linecap="round" stroke-linejoin="round"/></g><path d="m137.5 5.5s-2 0 1 2 32 15 32 15l2-1-33-15z"/><path d="m56.72 44a1.7 1.7 0 0 0 1.2 1.19l38.37 13.64 1.89-1.2-39.37-13.53s-2.37-1.1-2.09-.1z"/><path d="m114.5 17.5s-2 0 1 2 32 15 32 15l2-1-33-15z"/><path d="m102 26.53s-2 .12 1.12 1.94 29.88 11.73 29.88 11.73l1.91-.77-30.83-12z"/><path d="m177.5 24.19 34.5 16.81c1 1 .39 1.37-2 1l-33.5-16.5s.5-.12 1-1.31z"/><path d="m154.91 35.41 35.6 14.34s1.49 1.25-1.93 1.13l-34.58-14.09z"/><path d="m102.89 59.02 31.45 9.67-.69 1.29-32.65-10z"/><path d="m142 42.54 35.55 13c2.4.9.47 2.47-2 1.19l-35.35-12.94z"/><path d="m136 38.75a5.37 5.37 0 0 0 -.5 2.75c0 2 2.22 3.37 2.22 3.37l1.8 40.84 4.48 2.63v4l4.46-1.89v-5a35.36 35.36 0 0 0 -6-1l-2-40a3.7 3.7 0 0 1 -2-3v-3z" fill-opacity=".2"/><path d="m119.5 47.5-32-12s-3-1-4 1 0 3 2 4 27 10 27 10" fill="none" stroke="#000" stroke-linecap="round" stroke-linejoin="round" stroke-width="1.5"/><path d="m116.05 49.09-32.1-11.58" fill="none" stroke="#000" stroke-linecap="round" stroke-linejoin="round" stroke-width="1.5"/><path d="m125.5 49.2 8.86 3.37" fill="none" stroke="#000" stroke-linejoin="round" stroke-width="1.5"/><path d="m117.9 52.66 16.1 6.34" fill="none" stroke="#000" stroke-miterlimit="10" stroke-width="1.5"/><path d="m121.42 50.93 12.85 4.9" fill="none" stroke="#000" stroke-miterlimit="10" stroke-width="1.5"/><path d="m141 54.57 17 7.43s4 2 3 4-5 1-6 1-13.65-5.5-13.65-5.5" fill="none" stroke="#000" stroke-miterlimit="10" stroke-width="1.5"/><path d="m141.18 58.12 19.32 8.38" fill="none" stroke="#000" stroke-linejoin="round" stroke-width="1.5"/></svg>