<svg viewBox="0 0 300 300" xmlns="http://www.w3.org/2000/svg"><path d="m131 59s-13 1-14 6a2.62 2.62 0 0 0 .5 2.5c1 1 3 5 4 8s2 5 0 5-8 2-10 4-1 5-1 5l1 9a33.15 33.15 0 0 0 18 5c16.5.5 34-9 35-10s-1-11-1-11c.16-.17-2.84-5.17-4-5-1 .14-12 0-12 0s0-15-1-16-5-3-15.5-2.5z" fill="#26a9e0"/><path d="m151.5 88.5s1.14 9.54.57 10.77c0 0 12.43-4.77 12.43-5.77s0-9-1-11a27.36 27.36 0 0 0 -4-5s1.59 1.44-.21 3.72-5.36 6.31-8.08 6.3z" fill-opacity=".2"/><path d="m131 59s-13 1-14 6a2.62 2.62 0 0 0 .5 2.5c1 1 3 5 4 8s2 5 0 5-8 2-10 4-1 5-1 5l1 9s6 5 18 5c18 0 34-9 35-10s-1-11-1-11-3-4.79-4-5-12-.18-12 0c0 0 0-15-1-16s-5-3-15.5-2.5z" fill="none" stroke="#000" stroke-miterlimit="10"/><path d="m121.5 80.5s-7.3 1.22-8.65 3.11.21 5.68 3.93 6.29 12.31 2.13 27-.63l7.42-1.75-10.71-4a38.39 38.39 0 0 0 -18.99-3.02z" fill="#fff" fill-opacity=".2"/><path d="m132.5 67.5s15-1 14-5-14-3.56-14-3.56-14.5 1.06-15.24 5.31 15.24 3.25 15.24 3.25z" fill="none" stroke="#000" stroke-miterlimit="10"/><path d="m121.5 75.5s0 2 6 3 13-2 16-4 3.33-3.41 3.33-3.41l.67 6.41a10.67 10.67 0 0 1 -8 6c-13 3-16.91-3.58-16.91-3.58z" fill="#ec1c24" stroke="#000" stroke-miterlimit="10" stroke-width=".75"/><path d="m137 67 3.87 16.18s6.13-3.18 6.13-6.18 0-13.73 0-13.73-1.91 3.73-10 3.73z" fill-opacity=".2"/><path d="m136.18 59 .82 8s-18 2-20-2 13.36-7 19.18-6z" fill="#fff" fill-opacity=".2"/><path d="m113.16 83.3s-6.66 9.2 23.18 7c25.17-1.75 23.8-12.39 23.8-12.39l3.36 4.64s2 10 1 11-18 10-33.68 10a45.47 45.47 0 0 1 -16.46-3.35 7.75 7.75 0 0 1 -2.86-1.61l-1.2-10a5.34 5.34 0 0 1 2.86-5.29z" fill="none" stroke="#000" stroke-linecap="round" stroke-linejoin="round"/></svg>