<svg viewBox="0 0 300 300" xmlns="http://www.w3.org/2000/svg"><path d="m103.5 165.5s11-4 15-6a59.46 59.46 0 0 1 7-3s5 0 6 3 0 5-1 6-23 8-23 8a4.45 4.45 0 0 1 -5-2c-3-5 1-6 1-6z" fill="#26a9e0"/><path d="m102 167c-1.07 1.3 1.29 6.38 2.64 6.19s6.07.81 4.36-4.12c-1.82-4.07-5.95-3.35-7-2.07z" fill="#fff" fill-opacity=".2"/><g fill="none" stroke="#000" stroke-linecap="round" stroke-linejoin="round"><path d="m103.5 165.5s11-4 15-6a59.46 59.46 0 0 1 7-3s5 0 6 3 0 5-1 6-23 8-23 8a4.45 4.45 0 0 1 -5-2c-3-5 1-6 1-6z"/><path d="m106.5 173.5c3-1 3-3 2-5-3-4-6-2-6-2.24" stroke-width=".75"/><path d="m109.1 163.4s4.4.1 5.4 3.1a5.22 5.22 0 0 1 -.78 5" stroke-width=".75"/></g><circle cx="128" cy="161" r="1"/></svg>