<svg viewBox="0 0 300 300" xmlns="http://www.w3.org/2000/svg"><path d="m125.5 157.5s8-4 15-3 20 8 26 5l8-4s-3 13-14 14-29-3-35-2-25 7-30 6-10-1-12-11c0 0-1-3 3 0s11 4 18-1 15-8 21-4z" fill="#26a9e0"/><path d="m125.5 157.5s8-4 15-3 20 8 26 5l8-4s-3 13-14 14-29-3-35-2-25 7-30 6-10-1-12-11c0 0-1-3 3 0s11 4 18-1 15-8 21-4z" fill="#fff" fill-opacity=".4" stroke="#000" stroke-linecap="round" stroke-linejoin="round"/><ellipse cx="107.5" cy="165.25" rx="1" ry="1.25"/><ellipse cx="99.5" cy="168.25" rx="1" ry="1.25"/><ellipse cx="91.75" cy="168.94" rx=".75" ry=".94"/><ellipse cx="115.5" cy="163.25" rx="1" ry="1.25"/><ellipse cx="134.5" cy="162.25" rx="1" ry="1.25"/><ellipse cx="145.5" cy="163.25" rx="1" ry="1.25"/><ellipse cx="154.5" cy="164.25" rx="1" ry="1.25"/><ellipse cx="161.5" cy="163.25" rx="1" ry="1.25"/><circle cx="125" cy="162" fill="none" r="2.5" stroke="#000" stroke-linecap="round" stroke-linejoin="round" stroke-width=".75"/><circle cx="125" cy="162" r=".5"/></svg>