<svg viewBox="0 0 300 300" xmlns="http://www.w3.org/2000/svg"><path d="m139.5 51.5s-24-2-32 33c0 0-6 25 20 25s32-17 34-32-12-26-22-26z" fill="#26a9e0"/><path d="m139.5 51.5c-15.88.08-26.77 10.62-32 33 0 0-5 26 20 25s34-18 34-32c0-17-12-26-22-26z" fill="none" stroke="#000" stroke-linecap="round" stroke-linejoin="round"/><path d="m143.5 53.5s14 7 10 29-26 25-33 24-18-7-10.34-30.84c4.34-16.16 20.34-28.16 33.34-22.16z" fill="none" stroke="#000" stroke-linecap="round" stroke-linejoin="round" stroke-width=".75"/><path d="m121.5 63.5c-3 1.87-8 6-9 11s-1 14 0 16 4 1 4-2 0-17 5-21 1.9-5.18 0-4z" fill="#fff" fill-opacity=".4"/><path d="m128.5 57.5s-6 4-3 5 6-3 6-3 2-3-3-2z" fill="#fff" fill-opacity=".4"/><path d="m125.5 71.5s-7-2-10 1c-1.88 2.07 0 8 5 10s8-1 9-4-2-7-4-7z" fill="#ec1c24" stroke="#000" stroke-miterlimit="10" stroke-width=".75"/><path d="m131 79 4 2-.38-2.33-4.24-2.04-.32 1.97z" fill="#fff" fill-opacity=".2"/><path d="m130.09 76.5 4.46 2s.89 2 0 3a4.07 4.07 0 0 1 -2.67 1l-2.88-1.71a5.22 5.22 0 0 0 1.09-4.29z" fill="none" stroke="#000" stroke-linecap="round" stroke-linejoin="round" stroke-width=".75"/><ellipse cx="120" cy="75.5" fill="#fff" fill-opacity=".4" rx="2.5" ry="2"/><path d="m123.5 71.5s5 2 4 6-6.49 4.82-8.25 4.41 7.54 3.33 9.89-2.54-2.14-7.37-5.64-7.87z" fill-opacity=".2"/></svg>